# GENERATED by scripts/dae_to_obj.py from hexagon.dae.
# <unit meter="0.0254"> is baked into the vertices; OBJ has no unit field.
v -0.733235 1.270000 2.540000
v -1.466469 0.000000 0.000000
v -1.466469 0.000000 2.540000
v -0.733235 1.270000 0.000000
v -1.466469 0.000000 2.540000
v -0.733235 -1.270000 0.000000
v -0.733235 -1.270000 2.540000
v -1.466469 0.000000 0.000000
v -0.733235 -1.270000 2.540000
v 0.733235 -1.270000 0.000000
v 0.733235 -1.270000 2.540000
v -0.733235 -1.270000 0.000000
v 0.733235 -1.270000 2.540000
v 1.466469 0.000000 0.000000
v 1.466469 0.000000 2.540000
v 0.733235 -1.270000 0.000000
v 1.466469 0.000000 2.540000
v 0.733235 1.270000 0.000000
v 0.733235 1.270000 2.540000
v 1.466469 0.000000 0.000000
v 0.733235 1.270000 2.540000
v -0.733235 1.270000 0.000000
v -0.733235 1.270000 2.540000
v 0.733235 1.270000 0.000000
v -1.466469 0.000000 2.540000
v 1.466469 0.000000 2.540000
v -0.733235 1.270000 2.540000
v -0.733235 -1.270000 2.540000
v 0.733235 -1.270000 2.540000
v 0.733235 1.270000 2.540000
v -1.466469 0.000000 0.000000
v 0.733235 -1.270000 0.000000
v -0.733235 -1.270000 0.000000
v 1.466469 0.000000 0.000000
v -0.733235 1.270000 0.000000
v 0.733235 1.270000 0.000000
f 1 2 3
f 2 1 4
f 5 6 7
f 6 5 8
f 9 10 11
f 10 9 12
f 13 14 15
f 14 13 16
f 17 18 19
f 18 17 20
f 21 22 23
f 22 21 24
f 25 26 27
f 25 28 29
f 29 26 25
f 27 26 30
f 31 32 33
f 32 31 34
f 34 35 36
f 34 31 35
