# GENERATED by scripts/dae_to_obj.py from wall.dae.
# <unit meter="0.0254"> is baked into the vertices; OBJ has no unit field.
v -10.160000 5.865876 0.000000
v -10.160000 5.865876 5.080000
v 0.000000 11.731752 5.080000
v 0.000000 11.731752 0.000000
v 0.000000 11.731752 0.000000
v 0.000000 11.731752 5.080000
v 10.160000 5.865876 5.080000
v 10.160000 5.865876 0.000000
v 10.160000 5.865876 0.000000
v 10.160000 5.865876 5.080000
v 10.160000 -5.865876 5.080000
v 10.160000 -5.865876 0.000000
v 10.160000 -5.865876 0.000000
v 10.160000 -5.865876 5.080000
v -0.000000 -11.731752 5.080000
v 0.000000 -11.731752 0.000000
v 0.000000 -11.731752 0.000000
v -0.000000 -11.731752 5.080000
v -10.160000 -5.865876 5.080000
v -10.160000 -5.865876 0.000000
v 11.430000 6.599123 5.080000
v -0.000000 13.198221 5.080000
v -0.000000 13.198221 0.000000
v 11.430000 6.599123 0.000000
v -0.000000 13.198221 5.080000
v -11.430000 6.599123 5.080000
v -11.430000 6.599123 0.000000
v -0.000000 13.198221 0.000000
v -11.430000 6.599123 5.080000
v -11.430000 -6.599123 5.080000
v -11.430000 -6.599123 0.000000
v -11.430000 6.599123 0.000000
v -11.430000 -6.599123 5.080000
v -0.000000 -13.198221 5.080000
v -0.000000 -13.198221 0.000000
v -11.430000 -6.599123 0.000000
v -0.000000 -13.198221 5.080000
v 11.430000 -6.599123 5.080000
v 11.430000 -6.599123 0.000000
v -0.000000 -13.198221 0.000000
v 11.430000 -6.599123 0.000000
v 11.430000 6.599123 5.080000
v 11.430000 6.599123 0.000000
v 11.430000 -6.599123 5.080000
v -10.160000 -5.865876 0.000000
v -10.160000 -5.865876 5.080000
v -10.160000 5.865876 5.080000
v -10.160000 5.865876 0.000000
v -0.000000 -11.731752 5.080000
v -0.000000 -13.198221 5.080000
v -10.160000 -5.865876 5.080000
v -11.430000 -6.599123 5.080000
v -11.430000 6.599123 5.080000
v 11.430000 -6.599123 5.080000
v 10.160000 -5.865876 5.080000
v 10.160000 5.865876 5.080000
v 0.000000 11.731752 5.080000
v -0.000000 13.198221 5.080000
v -10.160000 5.865876 5.080000
v 11.430000 6.599123 5.080000
v -0.000000 -13.198221 0.000000
v 10.160000 -5.865876 0.000000
v 0.000000 -11.731752 0.000000
v 10.160000 5.865876 0.000000
v -0.000000 13.198221 0.000000
v 0.000000 11.731752 0.000000
v 11.430000 -6.599123 0.000000
v 11.430000 6.599123 0.000000
v -10.160000 5.865876 0.000000
v -11.430000 6.599123 0.000000
v -10.160000 -5.865876 0.000000
v -11.430000 -6.599123 0.000000
f 1 3 2
f 1 4 3
f 5 7 6
f 5 8 7
f 9 11 10
f 9 12 11
f 13 15 14
f 13 16 15
f 17 19 18
f 17 20 19
f 21 23 22
f 23 21 24
f 25 27 26
f 27 25 28
f 29 31 30
f 31 29 32
f 33 35 34
f 35 33 36
f 37 39 38
f 39 37 40
f 41 43 42
f 41 42 44
f 45 47 46
f 45 48 47
f 49 51 50
f 51 53 52
f 54 55 50
f 56 58 57
f 49 50 55
f 58 53 59
f 59 57 58
f 54 60 56
f 58 56 60
f 54 56 55
f 50 51 52
f 53 51 59
f 61 63 62
f 64 66 65
f 64 68 67
f 69 70 65
f 67 62 64
f 65 68 64
f 61 62 67
f 61 71 63
f 70 71 72
f 61 72 71
f 65 66 69
f 70 69 71
