# GENERATED by scripts/dae_to_obj.py from aws_Trash_01_visual.DAE.
# <unit meter="0.01"> is baked into the vertices; OBJ has no unit field.
v 0.103980 0.000000 0.000000
v 0.097709 0.035563 0.000000
v 0.079653 0.066837 0.000000
v 0.051990 0.090049 0.000000
v 0.018056 0.102400 0.000000
v -0.018056 0.102400 0.000000
v -0.051990 0.090049 0.000000
v -0.079653 0.066837 0.000000
v -0.097709 0.035563 0.000000
v -0.103980 0.000000 0.000000
v -0.097709 -0.035563 0.000000
v -0.079653 -0.066837 0.000000
v -0.051990 -0.090049 0.000000
v -0.018056 -0.102400 0.000000
v 0.018056 -0.102400 0.000000
v 0.051990 -0.090049 0.000000
v 0.079653 -0.066837 0.000000
v 0.097709 -0.035563 0.000000
v 0.140884 0.000000 0.340171
v 0.132388 0.048185 0.340171
v 0.107924 0.090559 0.340171
v 0.070442 0.122009 0.340171
v 0.024464 0.138744 0.340171
v -0.024464 0.138744 0.340171
v -0.070442 0.122009 0.340171
v -0.107924 0.090559 0.340171
v -0.132388 0.048185 0.340171
v -0.140884 0.000000 0.340171
v -0.132388 -0.048185 0.340171
v -0.107924 -0.090559 0.340171
v -0.070442 -0.122009 0.340171
v -0.024464 -0.138744 0.340171
v 0.024464 -0.138744 0.340171
v 0.070442 -0.122009 0.340171
v 0.107924 -0.090559 0.340171
v 0.132388 -0.048185 0.340171
v -0.000000 0.000000 0.000000
v 0.101181 0.000000 0.037234
v 0.095079 0.034606 0.037234
v 0.077509 0.065038 0.037234
v 0.050591 0.087626 0.037234
v 0.017570 0.099644 0.037234
v -0.017570 0.099644 0.037234
v -0.050591 0.087626 0.037234
v -0.077509 0.065038 0.037234
v -0.095079 0.034606 0.037234
v -0.101181 0.000000 0.037234
v -0.095079 -0.034606 0.037234
v -0.077510 -0.065038 0.037234
v -0.050591 -0.087626 0.037234
v -0.017570 -0.099644 0.037234
v 0.017570 -0.099644 0.037234
v 0.050591 -0.087626 0.037234
v 0.077509 -0.065038 0.037234
v 0.095079 -0.034606 0.037234
v 0.136939 0.000000 0.340599
v 0.128680 0.046836 0.340599
v 0.104901 0.088023 0.340599
v 0.068469 0.118593 0.340599
v 0.023779 0.134858 0.340599
v -0.023779 0.134858 0.340599
v -0.068469 0.118593 0.340599
v -0.104901 0.088023 0.340599
v -0.128680 0.046836 0.340599
v -0.136939 0.000000 0.340599
v -0.128680 -0.046836 0.340599
v -0.104901 -0.088023 0.340599
v -0.068469 -0.118592 0.340599
v -0.023779 -0.134858 0.340599
v 0.023779 -0.134858 0.340599
v 0.068469 -0.118593 0.340599
v 0.104901 -0.088023 0.340599
v 0.128680 -0.046836 0.340599
v -0.000000 0.000000 0.038388
v 0.127817 0.046522 0.340171
v 0.128708 0.046846 0.342451
v 0.130859 0.047629 0.343396
v 0.133009 0.048411 0.342451
v 0.133900 0.048736 0.340171
v 0.133009 0.048411 0.337891
v 0.130859 0.047629 0.336947
v 0.128708 0.046846 0.337891
v 0.132925 0.023438 0.340171
v 0.133851 0.023602 0.342451
v 0.136088 0.023996 0.343396
v 0.138324 0.024390 0.342451
v 0.139251 0.024554 0.340171
v 0.138324 0.024390 0.337891
v 0.136088 0.023996 0.336947
v 0.133851 0.023602 0.337891
v 0.136020 0.000000 0.340171
v 0.136968 0.000000 0.342451
v 0.139257 0.000000 0.343396
v 0.141545 0.000000 0.342451
v 0.142493 0.000000 0.340171
v 0.141545 0.000000 0.337891
v 0.139257 0.000000 0.336947
v 0.136968 0.000000 0.337891
v 0.132925 -0.023438 0.340171
v 0.133851 -0.023602 0.342451
v 0.136088 -0.023996 0.343396
v 0.138324 -0.024390 0.342451
v 0.139251 -0.024554 0.340171
v 0.138324 -0.024390 0.337891
v 0.136088 -0.023996 0.336947
v 0.133851 -0.023602 0.337891
v 0.127817 -0.046522 0.340171
v 0.128708 -0.046846 0.342451
v 0.130859 -0.047629 0.343396
v 0.133009 -0.048411 0.342451
v 0.133900 -0.048736 0.340171
v 0.133009 -0.048411 0.337891
v 0.130859 -0.047629 0.336947
v 0.128708 -0.046846 0.337891
v 0.116892 -0.067488 0.340171
v 0.117707 -0.067958 0.342451
v 0.119674 -0.069094 0.343396
v 0.121640 -0.070229 0.342451
v 0.122455 -0.070699 0.340171
v 0.121640 -0.070229 0.337891
v 0.119674 -0.069094 0.336947
v 0.117707 -0.067958 0.337891
v 0.104198 -0.087432 0.340171
v 0.104924 -0.088042 0.342451
v 0.106677 -0.089513 0.343396
v 0.108430 -0.090984 0.342451
v 0.109156 -0.091593 0.340171
v 0.108430 -0.090984 0.337891
v 0.106677 -0.089513 0.336947
v 0.104924 -0.088042 0.337891
v 0.086761 -0.103397 0.340171
v 0.087365 -0.104118 0.342451
v 0.088825 -0.105858 0.343396
v 0.090285 -0.107597 0.342451
v 0.090889 -0.108318 0.340171
v 0.090285 -0.107597 0.337891
v 0.088825 -0.105858 0.336947
v 0.087365 -0.104118 0.337891
v 0.068010 -0.117797 0.340171
v 0.068484 -0.118618 0.342451
v 0.069628 -0.120600 0.343396
v 0.070773 -0.122582 0.342451
v 0.071247 -0.123403 0.340171
v 0.070773 -0.122582 0.337891
v 0.069628 -0.120600 0.336947
v 0.068484 -0.118618 0.337891
v 0.046164 -0.126836 0.340171
v 0.046486 -0.127720 0.342451
v 0.047263 -0.129854 0.343396
v 0.048039 -0.131988 0.342451
v 0.048361 -0.132871 0.340171
v 0.048039 -0.131988 0.337891
v 0.047263 -0.129854 0.336947
v 0.046486 -0.127720 0.337891
v 0.023620 -0.133954 0.340171
v 0.023784 -0.134887 0.342451
v 0.024182 -0.137141 0.343396
v 0.024579 -0.139395 0.342451
v 0.024744 -0.140329 0.340171
v 0.024579 -0.139395 0.337891
v 0.024182 -0.137141 0.336947
v 0.023784 -0.134887 0.337891
v -0.000000 -0.134976 0.340171
v -0.000000 -0.135916 0.342451
v -0.000000 -0.138187 0.343396
v -0.000000 -0.140458 0.342451
v -0.000000 -0.141399 0.340171
v -0.000000 -0.140458 0.337891
v -0.000000 -0.138187 0.336947
v -0.000000 -0.135916 0.337891
v -0.023620 -0.133954 0.340171
v -0.023784 -0.134887 0.342451
v -0.024182 -0.137141 0.343396
v -0.024579 -0.139395 0.342451
v -0.024744 -0.140329 0.340171
v -0.024579 -0.139395 0.337891
v -0.024182 -0.137141 0.336947
v -0.023784 -0.134887 0.337891
v -0.046164 -0.126836 0.340171
v -0.046486 -0.127720 0.342451
v -0.047263 -0.129854 0.343396
v -0.048040 -0.131988 0.342451
v -0.048361 -0.132871 0.340171
v -0.048040 -0.131988 0.337891
v -0.047263 -0.129854 0.336947
v -0.046486 -0.127720 0.337891
v -0.068010 -0.117797 0.340171
v -0.068484 -0.118618 0.342451
v -0.069628 -0.120600 0.343396
v -0.070773 -0.122582 0.342451
v -0.071247 -0.123403 0.340171
v -0.070773 -0.122582 0.337891
v -0.069628 -0.120600 0.336947
v -0.068484 -0.118618 0.337891
v -0.086761 -0.103397 0.340171
v -0.087365 -0.104118 0.342451
v -0.088825 -0.105858 0.343396
v -0.090285 -0.107597 0.342451
v -0.090889 -0.108318 0.340171
v -0.090285 -0.107597 0.337891
v -0.088825 -0.105858 0.336947
v -0.087365 -0.104118 0.337891
v -0.104198 -0.087432 0.340171
v -0.104924 -0.088042 0.342451
v -0.106677 -0.089513 0.343396
v -0.108430 -0.090984 0.342451
v -0.109156 -0.091593 0.340171
v -0.108430 -0.090984 0.337891
v -0.106677 -0.089513 0.336947
v -0.104924 -0.088042 0.337891
v -0.116892 -0.067488 0.340171
v -0.117707 -0.067958 0.342451
v -0.119674 -0.069094 0.343396
v -0.121640 -0.070229 0.342451
v -0.122455 -0.070699 0.340171
v -0.121640 -0.070229 0.337891
v -0.119674 -0.069094 0.336947
v -0.117707 -0.067958 0.337891
v -0.127817 -0.046522 0.340171
v -0.128708 -0.046846 0.342451
v -0.130859 -0.047629 0.343396
v -0.133009 -0.048411 0.342451
v -0.133900 -0.048736 0.340171
v -0.133009 -0.048411 0.337891
v -0.130859 -0.047629 0.336947
v -0.128708 -0.046846 0.337891
v -0.132925 -0.023438 0.340171
v -0.133851 -0.023602 0.342451
v -0.136088 -0.023996 0.343396
v -0.138324 -0.024390 0.342451
v -0.139251 -0.024554 0.340171
v -0.138324 -0.024390 0.337891
v -0.136088 -0.023996 0.336947
v -0.133851 -0.023602 0.337891
v -0.136020 0.000000 0.340171
v -0.136968 0.000000 0.342451
v -0.139257 0.000000 0.343396
v -0.141545 0.000000 0.342451
v -0.142493 0.000000 0.340171
v -0.141545 0.000000 0.337891
v -0.139257 0.000000 0.336947
v -0.136968 0.000000 0.337891
v -0.132925 0.023438 0.340171
v -0.133851 0.023602 0.342451
v -0.136088 0.023996 0.343396
v -0.138324 0.024390 0.342451
v -0.139251 0.024554 0.340171
v -0.138324 0.024390 0.337891
v -0.136088 0.023996 0.336947
v -0.133851 0.023602 0.337891
v -0.127817 0.046522 0.340171
v -0.128708 0.046846 0.342451
v -0.130859 0.047629 0.343396
v -0.133009 0.048411 0.342451
v -0.133900 0.048736 0.340171
v -0.133009 0.048411 0.337891
v -0.130859 0.047629 0.336947
v -0.128708 0.046846 0.337891
v -0.116892 0.067488 0.340171
v -0.117707 0.067958 0.342451
v -0.119674 0.069094 0.343396
v -0.121640 0.070229 0.342451
v -0.122455 0.070699 0.340171
v -0.121640 0.070229 0.337891
v -0.119674 0.069094 0.336947
v -0.117707 0.067958 0.337891
v -0.104198 0.087432 0.340171
v -0.104924 0.088042 0.342451
v -0.106677 0.089513 0.343396
v -0.108430 0.090984 0.342451
v -0.109156 0.091593 0.340171
v -0.108430 0.090984 0.337891
v -0.106677 0.089513 0.336947
v -0.104924 0.088042 0.337891
v -0.086761 0.103397 0.340171
v -0.087365 0.104118 0.342451
v -0.088825 0.105858 0.343396
v -0.090285 0.107597 0.342451
v -0.090889 0.108318 0.340171
v -0.090285 0.107597 0.337891
v -0.088825 0.105858 0.336947
v -0.087365 0.104118 0.337891
v -0.068010 0.117797 0.340171
v -0.068484 0.118618 0.342451
v -0.069628 0.120600 0.343396
v -0.070773 0.122582 0.342451
v -0.071247 0.123403 0.340171
v -0.070773 0.122582 0.337891
v -0.069628 0.120600 0.336947
v -0.068484 0.118618 0.337891
v -0.046164 0.126836 0.340171
v -0.046486 0.127720 0.342451
v -0.047263 0.129854 0.343396
v -0.048040 0.131988 0.342451
v -0.048361 0.132871 0.340171
v -0.048040 0.131988 0.337891
v -0.047263 0.129854 0.336947
v -0.046486 0.127720 0.337891
v -0.023620 0.133954 0.340171
v -0.023784 0.134887 0.342451
v -0.024182 0.137141 0.343396
v -0.024579 0.139395 0.342451
v -0.024744 0.140329 0.340171
v -0.024579 0.139395 0.337891
v -0.024182 0.137141 0.336947
v -0.023784 0.134887 0.337891
v -0.000000 0.134976 0.340171
v -0.000000 0.135916 0.342451
v -0.000000 0.138187 0.343396
v -0.000000 0.140458 0.342451
v -0.000000 0.141399 0.340171
v -0.000000 0.140458 0.337891
v -0.000000 0.138187 0.336947
v -0.000000 0.135916 0.337891
v 0.023620 0.133954 0.340171
v 0.023784 0.134887 0.342451
v 0.024182 0.137141 0.343396
v 0.024579 0.139395 0.342451
v 0.024744 0.140329 0.340171
v 0.024579 0.139395 0.337891
v 0.024182 0.137141 0.336947
v 0.023784 0.134887 0.337891
v 0.046164 0.126836 0.340171
v 0.046486 0.127720 0.342451
v 0.047263 0.129854 0.343396
v 0.048040 0.131988 0.342451
v 0.048361 0.132871 0.340171
v 0.048040 0.131988 0.337891
v 0.047263 0.129854 0.336947
v 0.046486 0.127720 0.337891
v 0.068010 0.117797 0.340171
v 0.068484 0.118618 0.342451
v 0.069628 0.120600 0.343396
v 0.070773 0.122582 0.342451
v 0.071247 0.123403 0.340171
v 0.070773 0.122582 0.337891
v 0.069628 0.120600 0.336947
v 0.068484 0.118618 0.337891
v 0.086761 0.103397 0.340171
v 0.087365 0.104118 0.342451
v 0.088825 0.105858 0.343396
v 0.090285 0.107597 0.342451
v 0.090889 0.108318 0.340171
v 0.090285 0.107597 0.337891
v 0.088825 0.105858 0.336947
v 0.087365 0.104118 0.337891
v 0.104198 0.087432 0.340171
v 0.104924 0.088042 0.342451
v 0.106677 0.089513 0.343396
v 0.108430 0.090984 0.342451
v 0.109156 0.091593 0.340171
v 0.108430 0.090984 0.337891
v 0.106677 0.089513 0.336947
v 0.104924 0.088042 0.337891
v 0.116892 0.067488 0.340171
v 0.117707 0.067958 0.342451
v 0.119674 0.069094 0.343396
v 0.121640 0.070229 0.342451
v 0.122455 0.070699 0.340171
v 0.121640 0.070229 0.337891
v 0.119674 0.069094 0.336947
v 0.117707 0.067958 0.337891
f 19 2 20
f 2 19 1
f 20 3 21
f 3 20 2
f 21 3 22
f 3 4 22
f 22 4 23
f 23 4 5
f 23 5 24
f 24 5 6
f 24 7 25
f 7 24 6
f 25 8 26
f 8 25 7
f 26 8 27
f 8 9 27
f 27 9 28
f 28 9 10
f 28 11 29
f 11 28 10
f 29 12 30
f 12 29 11
f 30 12 31
f 12 13 31
f 31 13 32
f 32 13 14
f 32 14 33
f 33 14 15
f 33 16 34
f 16 33 15
f 34 17 35
f 17 34 16
f 35 17 36
f 17 18 36
f 36 18 19
f 19 18 1
f 2 1 37
f 1 18 37
f 18 17 37
f 17 16 37
f 16 15 37
f 15 14 37
f 14 13 37
f 13 12 37
f 12 11 37
f 11 10 37
f 10 9 37
f 9 8 37
f 8 7 37
f 7 6 37
f 6 5 37
f 5 4 37
f 4 3 37
f 3 2 37
f 56 39 38
f 39 56 57
f 57 40 39
f 40 57 58
f 40 58 59
f 59 41 40
f 41 59 60
f 60 42 41
f 42 60 61
f 61 43 42
f 61 44 43
f 44 61 62
f 62 45 44
f 45 62 63
f 45 63 64
f 64 46 45
f 46 64 65
f 65 47 46
f 65 48 47
f 48 65 66
f 66 49 48
f 49 66 67
f 49 67 68
f 68 50 49
f 50 68 69
f 69 51 50
f 51 69 70
f 70 52 51
f 70 53 52
f 53 70 71
f 71 54 53
f 54 71 72
f 54 72 73
f 73 55 54
f 55 73 56
f 56 38 55
f 74 38 39
f 74 55 38
f 74 54 55
f 74 53 54
f 74 52 53
f 74 51 52
f 74 50 51
f 74 49 50
f 74 48 49
f 74 47 48
f 74 46 47
f 74 45 46
f 74 44 45
f 74 43 44
f 74 42 43
f 74 41 42
f 74 40 41
f 74 39 40
f 56 20 57
f 20 56 19
f 57 21 58
f 21 57 20
f 58 22 59
f 22 58 21
f 60 59 22
f 22 23 60
f 24 60 23
f 60 24 61
f 62 24 25
f 24 62 61
f 25 63 62
f 63 25 26
f 64 63 26
f 64 26 27
f 65 64 27
f 27 28 65
f 65 29 66
f 29 65 28
f 30 66 29
f 66 30 67
f 31 67 30
f 67 31 68
f 31 69 68
f 69 31 32
f 70 69 32
f 70 32 33
f 71 70 33
f 33 34 71
f 71 35 72
f 35 71 34
f 36 72 35
f 72 36 73
f 56 36 19
f 36 56 73
f 84 76 75
f 84 75 83
f 85 77 76
f 76 84 85
f 86 78 77
f 77 85 86
f 78 86 87
f 78 87 79
f 87 80 79
f 80 87 88
f 88 81 80
f 81 88 89
f 89 82 81
f 82 89 90
f 75 90 83
f 90 75 82
f 92 84 83
f 92 83 91
f 85 92 93
f 92 85 84
f 86 93 94
f 93 86 85
f 86 94 95
f 86 95 87
f 95 88 87
f 88 95 96
f 97 88 96
f 88 97 89
f 98 89 97
f 89 98 90
f 83 98 91
f 98 83 90
f 92 99 100
f 99 92 91
f 101 93 92
f 92 100 101
f 102 94 93
f 93 101 102
f 102 95 94
f 95 102 103
f 95 103 104
f 95 104 96
f 97 104 105
f 104 97 96
f 98 105 106
f 105 98 97
f 99 91 98
f 99 98 106
f 100 107 108
f 107 100 99
f 101 108 109
f 108 101 100
f 102 109 110
f 109 102 101
f 110 103 102
f 103 110 111
f 103 111 112
f 103 112 104
f 104 113 105
f 113 104 112
f 105 114 106
f 114 105 113
f 107 99 106
f 107 106 114
f 108 115 116
f 115 108 107
f 117 109 108
f 117 108 116
f 118 110 109
f 118 109 117
f 118 111 110
f 111 118 119
f 111 119 120
f 111 120 112
f 113 120 121
f 120 113 112
f 114 121 122
f 121 114 113
f 115 107 114
f 115 114 122
f 116 123 124
f 123 116 115
f 117 124 125
f 124 117 116
f 118 125 126
f 125 118 117
f 126 119 118
f 119 126 127
f 119 127 128
f 119 128 120
f 129 121 120
f 129 120 128
f 130 122 121
f 130 121 129
f 123 115 122
f 122 130 123
f 132 124 123
f 123 131 132
f 133 125 124
f 133 124 132
f 134 126 125
f 134 125 133
f 126 134 135
f 126 135 127
f 135 128 127
f 128 135 136
f 129 136 137
f 136 129 128
f 130 137 138
f 137 130 129
f 123 138 131
f 138 123 130
f 140 132 131
f 140 131 139
f 133 140 141
f 140 133 132
f 134 141 142
f 141 134 133
f 134 142 143
f 134 143 135
f 143 136 135
f 136 143 144
f 145 137 136
f 136 144 145
f 146 138 137
f 137 145 146
f 131 146 139
f 146 131 138
f 148 140 139
f 148 139 147
f 149 140 148
f 140 149 141
f 150 141 149
f 141 150 142
f 142 150 151
f 142 151 143
f 151 144 143
f 144 151 152
f 145 152 153
f 152 145 144
f 146 153 154
f 153 146 145
f 139 154 147
f 154 139 146
f 156 148 147
f 156 147 155
f 156 149 148
f 149 156 157
f 157 150 149
f 150 157 158
f 150 158 159
f 150 159 151
f 159 152 151
f 152 159 160
f 161 153 152
f 152 160 161
f 162 154 153
f 153 161 162
f 147 162 155
f 162 147 154
f 164 156 155
f 164 155 163
f 165 156 164
f 156 165 157
f 166 157 165
f 157 166 158
f 158 166 167
f 158 167 159
f 167 160 159
f 160 167 168
f 168 161 160
f 161 168 169
f 169 162 161
f 162 169 170
f 155 170 163
f 170 155 162
f 164 171 172
f 171 164 163
f 172 165 164
f 165 172 173
f 173 166 165
f 166 173 174
f 174 167 166
f 167 174 175
f 167 175 176
f 167 176 168
f 177 168 176
f 168 177 169
f 178 169 177
f 169 178 170
f 171 163 170
f 171 170 178
f 172 179 180
f 179 172 171
f 181 173 172
f 172 180 181
f 182 174 173
f 173 181 182
f 182 175 174
f 175 182 183
f 175 183 184
f 175 184 176
f 184 177 176
f 177 184 185
f 185 178 177
f 178 185 186
f 179 171 178
f 179 178 186
f 180 187 188
f 187 180 179
f 181 188 189
f 188 181 180
f 182 189 190
f 189 182 181
f 190 183 182
f 183 190 191
f 183 191 192
f 183 192 184
f 193 184 192
f 184 193 185
f 194 185 193
f 185 194 186
f 187 179 186
f 187 186 194
f 188 195 196
f 195 188 187
f 197 189 188
f 188 196 197
f 198 190 189
f 189 197 198
f 198 191 190
f 191 198 199
f 191 199 200
f 191 200 192
f 193 200 201
f 200 193 192
f 194 201 202
f 201 194 193
f 195 187 194
f 194 202 195
f 196 203 204
f 203 196 195
f 197 204 205
f 204 197 196
f 198 205 206
f 205 198 197
f 206 199 198
f 199 206 207
f 199 207 208
f 199 208 200
f 200 209 201
f 209 200 208
f 201 210 202
f 210 201 209
f 203 195 202
f 202 210 203
f 212 204 203
f 212 203 211
f 213 205 204
f 213 204 212
f 214 206 205
f 214 205 213
f 206 214 215
f 206 215 207
f 215 208 207
f 208 215 216
f 209 216 217
f 216 209 208
f 210 217 218
f 217 210 209
f 203 218 211
f 218 203 210
f 220 212 211
f 220 211 219
f 213 220 221
f 220 213 212
f 214 221 222
f 221 214 213
f 214 222 223
f 214 223 215
f 223 216 215
f 216 223 224
f 225 217 216
f 225 216 224
f 226 218 217
f 226 217 225
f 211 226 219
f 226 211 218
f 228 220 219
f 228 219 227
f 229 221 220
f 229 220 228
f 230 222 221
f 230 221 229
f 222 230 231
f 222 231 223
f 231 224 223
f 224 231 232
f 225 232 233
f 232 225 224
f 226 233 234
f 233 226 225
f 219 234 227
f 234 219 226
f 236 228 227
f 236 227 235
f 229 236 237
f 236 229 228
f 230 237 238
f 237 230 229
f 230 238 239
f 230 239 231
f 239 232 231
f 232 239 240
f 241 233 232
f 232 240 241
f 242 234 233
f 233 241 242
f 227 242 235
f 242 227 234
f 236 243 244
f 243 236 235
f 245 236 244
f 236 245 237
f 246 237 245
f 237 246 238
f 246 239 238
f 239 246 247
f 239 247 248
f 239 248 240
f 241 248 249
f 248 241 240
f 242 249 250
f 249 242 241
f 243 235 242
f 243 242 250
f 244 251 252
f 251 244 243
f 252 245 244
f 245 252 253
f 253 246 245
f 246 253 254
f 254 247 246
f 247 254 255
f 247 255 256
f 247 256 248
f 257 249 248
f 248 256 257
f 258 250 249
f 249 257 258
f 251 243 250
f 251 250 258
f 252 259 260
f 259 252 251
f 261 252 260
f 252 261 253
f 262 253 261
f 253 262 254
f 262 255 254
f 255 262 263
f 255 263 264
f 255 264 256
f 264 257 256
f 257 264 265
f 265 258 257
f 258 265 266
f 259 251 258
f 259 258 266
f 260 267 268
f 267 260 259
f 268 261 260
f 261 268 269
f 269 262 261
f 262 269 270
f 270 263 262
f 263 270 271
f 263 271 272
f 263 272 264
f 273 264 272
f 264 273 265
f 274 265 273
f 265 274 266
f 267 259 266
f 266 274 267
f 276 268 267
f 267 275 276
f 277 269 268
f 268 276 277
f 278 270 269
f 269 277 278
f 270 278 279
f 270 279 271
f 279 272 271
f 272 279 280
f 280 273 272
f 273 280 281
f 281 274 273
f 274 281 282
f 267 282 275
f 282 267 274
f 284 276 275
f 284 275 283
f 277 284 285
f 284 277 276
f 278 285 286
f 285 278 277
f 278 286 287
f 278 287 279
f 287 280 279
f 280 287 288
f 289 280 288
f 280 289 281
f 290 281 289
f 281 290 282
f 275 290 283
f 290 275 282
f 292 284 283
f 292 283 291
f 293 285 284
f 284 292 293
f 294 286 285
f 285 293 294
f 286 294 295
f 286 295 287
f 295 288 287
f 288 295 296
f 289 296 297
f 296 289 288
f 290 297 298
f 297 290 289
f 283 298 291
f 298 283 290
f 300 292 291
f 300 291 299
f 293 300 301
f 300 293 292
f 294 301 302
f 301 294 293
f 294 302 303
f 294 303 295
f 303 296 295
f 296 303 304
f 296 305 297
f 305 296 304
f 297 306 298
f 306 297 305
f 291 306 299
f 306 291 298
f 308 300 299
f 308 299 307
f 309 301 300
f 309 300 308
f 310 302 301
f 310 301 309
f 302 310 311
f 302 311 303
f 311 304 303
f 304 311 312
f 305 312 313
f 312 305 304
f 306 313 314
f 313 306 305
f 299 314 307
f 314 299 306
f 308 315 316
f 315 308 307
f 309 316 317
f 316 309 308
f 310 317 318
f 317 310 309
f 318 311 310
f 311 318 319
f 311 319 320
f 311 320 312
f 321 313 312
f 321 312 320
f 322 314 313
f 322 313 321
f 315 307 314
f 315 314 322
f 316 323 324
f 323 316 315
f 325 317 316
f 325 316 324
f 326 318 317
f 326 317 325
f 326 319 318
f 319 326 327
f 319 327 328
f 319 328 320
f 321 328 329
f 328 321 320
f 322 329 330
f 329 322 321
f 323 315 322
f 323 322 330
f 324 331 332
f 331 324 323
f 325 332 333
f 332 325 324
f 326 333 334
f 333 326 325
f 334 327 326
f 327 334 335
f 327 335 336
f 327 336 328
f 337 329 328
f 328 336 337
f 338 330 329
f 329 337 338
f 331 323 330
f 331 330 338
f 332 339 340
f 339 332 331
f 341 332 340
f 332 341 333
f 342 333 341
f 333 342 334
f 342 335 334
f 335 342 343
f 335 343 344
f 335 344 336
f 337 344 345
f 344 337 336
f 338 345 346
f 345 338 337
f 339 331 338
f 338 346 339
f 340 347 348
f 347 340 339
f 348 341 340
f 341 348 349
f 349 342 341
f 342 349 350
f 350 343 342
f 343 350 351
f 343 351 352
f 343 352 344
f 353 345 344
f 344 352 353
f 354 346 345
f 345 353 354
f 347 339 346
f 346 354 347
f 356 348 347
f 356 347 355
f 357 348 356
f 348 357 349
f 358 349 357
f 349 358 350
f 350 358 359
f 350 359 351
f 359 352 351
f 352 359 360
f 360 353 352
f 353 360 361
f 361 354 353
f 354 361 362
f 347 362 355
f 362 347 354
f 76 356 355
f 76 355 75
f 76 357 356
f 357 76 77
f 77 358 357
f 358 77 78
f 358 78 79
f 358 79 359
f 79 360 359
f 360 79 80
f 81 360 80
f 360 81 361
f 82 361 81
f 361 82 362
f 355 82 75
f 82 355 362
