# GENERATED by scripts/dae_to_obj.py from aws_NightStand_01_visual.DAE.
# <unit meter="0.01"> is baked into the vertices; OBJ has no unit field.
v 0.343451 0.234714 0.072246
v -0.342089 0.234714 0.072246
v -0.342089 0.234714 0.058614
v 0.343451 0.234714 0.058614
v 0.343451 -0.213723 0.072249
v 0.343451 -0.213724 0.058617
v -0.342089 -0.213723 0.072250
v -0.342089 -0.213724 0.058617
v 0.342088 -0.212361 -0.000000
v 0.342088 0.233350 -0.000004
v -0.340725 0.233350 -0.000004
v -0.340725 -0.212361 -0.000000
v -0.340725 0.233351 0.073609
v 0.342088 0.233351 0.073609
v 0.342088 -0.212360 0.073613
v -0.340725 -0.212360 0.073613
v 0.342088 0.233351 0.057251
v 0.342088 -0.212360 0.057254
v -0.340725 0.233350 0.057251
v -0.340725 -0.212360 0.057254
v 0.335272 0.226535 0.057251
v 0.335272 -0.205544 0.057254
v -0.333910 0.226535 0.057251
v -0.333910 -0.205544 0.057254
v 0.335272 0.226534 0.016355
v 0.335272 -0.205545 0.016358
v -0.333910 0.226534 0.016355
v -0.333910 -0.205545 0.016358
v 0.342088 0.233350 0.016355
v 0.342088 -0.212361 0.016358
v -0.340725 0.233350 0.016355
v -0.340725 -0.212361 0.016358
v 0.343451 0.234713 0.014992
v 0.343451 -0.213724 0.014995
v -0.342089 0.234713 0.014992
v -0.342089 -0.213724 0.014995
v 0.343451 0.234713 0.001360
v 0.343451 -0.213724 0.001363
v -0.342089 0.234713 0.001360
v -0.342089 -0.213724 0.001363
v 0.329818 -0.197365 0.076337
v 0.329818 -0.197365 0.634207
v 0.329818 0.218355 0.634207
v 0.329818 0.218355 0.076337
v -0.325731 -0.197365 0.073611
v 0.327091 -0.197365 0.073611
v 0.327091 0.218355 0.073611
v -0.325731 0.218355 0.073611
v -0.328458 -0.197365 0.634207
v -0.328458 -0.197365 0.076337
v -0.328458 0.218355 0.076337
v -0.328458 0.218355 0.634207
v 0.327091 0.221082 0.076337
v 0.327091 0.221082 0.634207
v -0.325731 0.221082 0.634207
v -0.325731 0.221082 0.076337
v 0.328454 -0.198729 0.074974
v -0.327094 -0.198729 0.074974
v -0.325731 -0.200092 0.076337
v 0.327091 -0.200092 0.076337
v -0.327094 -0.198729 0.634212
v -0.325731 -0.200092 0.634207
v 0.328454 -0.198729 0.634212
v 0.327091 -0.200092 0.634207
v -0.314825 -0.200092 0.087243
v 0.316186 -0.200092 0.087243
v -0.314825 -0.200092 0.634169
v 0.316186 -0.200092 0.634169
v -0.313462 -0.198729 0.088606
v 0.314823 -0.198729 0.088606
v -0.313462 -0.198729 0.634164
v 0.314823 -0.198729 0.634164
v -0.313462 -0.185097 0.088606
v 0.314823 -0.185097 0.088606
v -0.313462 -0.185097 0.634164
v 0.314823 -0.185097 0.634164
v -0.327094 0.219718 0.634212
v 0.328454 0.219719 0.634212
v 0.328454 0.219718 0.074974
v -0.327094 0.219718 0.074974
v -0.254844 -0.200092 0.147223
v -0.254844 -0.200092 0.358674
v 0.256206 -0.200092 0.358674
v 0.256206 -0.200092 0.147223
v 0.273927 -0.185097 0.129502
v -0.272566 -0.185096 0.129502
v -0.272566 -0.198728 0.129502
v 0.273927 -0.198729 0.129502
v -0.272566 -0.185097 0.593299
v -0.272566 -0.198729 0.593299
v 0.273927 -0.185097 0.593299
v 0.273927 -0.198729 0.593299
v -0.271203 -0.200091 0.130865
v 0.272564 -0.200092 0.130865
v -0.271202 -0.200092 0.591935
v 0.272564 -0.200092 0.591935
v -0.260297 -0.200092 0.141771
v 0.261658 -0.200092 0.141771
v -0.260297 -0.200092 0.581030
v 0.261658 -0.200092 0.581030
v -0.258934 -0.198728 0.143134
v 0.260295 -0.198729 0.143134
v -0.258934 -0.198729 0.579667
v 0.260295 -0.198729 0.579667
v -0.258934 -0.185096 0.143134
v 0.260295 -0.185097 0.143134
v -0.258934 -0.185097 0.579667
v -0.258934 -0.185097 0.361400
v 0.260295 -0.185097 0.579667
v 0.260295 -0.185097 0.361400
v -0.254844 -0.200092 0.575577
v 0.256206 -0.200092 0.575577
v 0.256206 -0.200092 0.364127
v -0.254844 -0.200092 0.364127
v -0.256207 -0.185096 0.145860
v 0.257569 -0.185097 0.145860
v -0.256207 -0.185097 0.360037
v 0.257569 -0.185097 0.360037
v -0.256207 -0.185097 0.576940
v -0.256207 -0.185097 0.362763
v 0.257569 -0.185097 0.576940
v 0.257569 -0.185097 0.362763
v -0.256207 -0.198728 0.145860
v 0.257569 -0.198729 0.145860
v -0.256207 -0.198729 0.360037
v 0.257569 -0.198729 0.360037
v -0.256207 -0.198729 0.576940
v -0.256207 -0.198729 0.362763
v 0.257569 -0.198729 0.576940
v 0.257569 -0.198729 0.362763
v -0.313462 -0.185096 0.088606
v -0.313462 -0.185097 0.634195
v -0.272566 -0.185096 0.129502
v 0.314823 -0.185097 0.634195
v 0.273927 -0.185097 0.593299
v 0.314823 -0.185097 0.088606
v 0.273927 -0.185097 0.129502
v -0.272566 -0.185097 0.593299
v 0.257569 -0.185097 0.361400
v -0.256207 -0.185097 0.361400
v 0.087683 -0.230920 0.275137
v -0.088866 -0.230920 0.273954
v -0.087683 -0.220765 0.275137
v 0.088866 -0.220765 0.273954
v -0.088866 -0.230920 0.259313
v -0.088866 -0.220766 0.259313
v 0.087683 -0.232103 0.259313
v 0.088866 -0.220765 0.259313
v -0.071946 -0.232103 0.273954
v 0.071946 -0.230920 0.275137
v -0.073129 -0.220765 0.275137
v 0.071946 -0.232103 0.259313
v -0.071946 -0.230920 0.258131
v 0.073128 -0.220765 0.258131
v -0.088866 -0.185591 0.259313
v -0.087683 -0.185591 0.275136
v -0.071946 -0.185591 0.273954
v -0.073129 -0.185591 0.258130
v 0.073128 -0.185591 0.275137
v 0.088866 -0.185591 0.273954
v 0.087683 -0.185591 0.258131
v 0.071946 -0.185591 0.259313
v 0.087683 -0.232103 0.273954
v 0.088866 -0.230920 0.273954
v -0.087683 -0.232103 0.273954
v -0.087683 -0.230920 0.275137
v -0.088866 -0.220765 0.273954
v 0.087683 -0.220765 0.275137
v -0.087683 -0.230920 0.258131
v -0.087683 -0.232103 0.259313
v -0.087683 -0.220766 0.258131
v 0.087683 -0.230920 0.258131
v 0.088866 -0.230920 0.259313
v 0.087683 -0.220765 0.258131
v -0.071946 -0.230920 0.275137
v 0.071946 -0.232103 0.273954
v 0.071946 -0.220765 0.273954
v 0.071946 -0.221948 0.275137
v -0.071946 -0.220765 0.273954
v 0.071946 -0.230920 0.258131
v -0.071946 -0.232103 0.259313
v -0.071946 -0.220766 0.259313
v -0.071946 -0.221948 0.258131
v 0.071946 -0.220765 0.259313
v -0.087683 -0.185591 0.258130
v -0.088866 -0.185591 0.273954
v -0.073129 -0.185591 0.275136
v -0.071946 -0.185591 0.259313
v 0.071946 -0.185591 0.273954
v 0.087683 -0.185591 0.275137
v 0.088866 -0.185591 0.259313
v 0.073128 -0.185591 0.258131
v 0.087683 -0.231807 0.274841
v 0.088570 -0.231807 0.273954
v 0.088570 -0.230920 0.274841
v -0.088571 -0.231807 0.273954
v -0.087683 -0.231807 0.274841
v -0.088571 -0.230920 0.274841
v -0.088571 -0.220765 0.274841
v 0.088570 -0.220765 0.274841
v -0.088571 -0.230920 0.258426
v -0.087683 -0.231807 0.258426
v -0.088571 -0.231807 0.259313
v -0.088571 -0.220766 0.258426
v 0.087683 -0.231807 0.258426
v 0.088570 -0.230920 0.258426
v 0.088570 -0.231807 0.259313
v 0.088570 -0.220765 0.258426
v -0.071946 -0.231807 0.274841
v 0.071946 -0.231807 0.274841
v 0.072537 -0.220765 0.274545
v 0.071946 -0.221357 0.274545
v 0.073128 -0.220765 0.275137
v -0.071946 -0.221948 0.275137
v -0.072538 -0.220765 0.274545
v 0.071946 -0.231807 0.258426
v -0.071946 -0.231807 0.258426
v -0.072538 -0.220766 0.258722
v -0.071946 -0.221357 0.258722
v -0.073129 -0.220766 0.258131
v 0.071946 -0.221948 0.258131
v 0.071946 -0.221357 0.258722
v -0.088571 -0.185591 0.258426
v -0.088571 -0.185591 0.274841
v -0.072242 -0.185591 0.274841
v -0.072242 -0.185591 0.258426
v 0.072241 -0.185591 0.274841
v 0.088570 -0.185591 0.274841
v 0.088570 -0.185591 0.258426
v 0.072241 -0.185591 0.258426
v 0.088348 -0.231585 0.274841
v -0.088571 -0.231585 0.274619
v -0.088571 -0.231585 0.258648
v 0.088348 -0.231807 0.258648
v -0.071946 -0.221357 0.274545
v 0.072537 -0.220765 0.258722
v 0.087683 -0.230920 0.481874
v -0.088866 -0.230920 0.480691
v -0.087683 -0.220765 0.481874
v 0.088866 -0.220765 0.480691
v -0.088866 -0.230920 0.466050
v -0.088866 -0.220766 0.466050
v 0.087683 -0.232103 0.466050
v 0.088866 -0.220765 0.466050
v -0.071946 -0.232103 0.480691
v 0.071946 -0.230920 0.481874
v -0.073129 -0.220765 0.481874
v 0.071946 -0.232103 0.466050
v -0.071946 -0.230920 0.464867
v 0.073128 -0.220765 0.464867
v -0.088866 -0.185591 0.466050
v -0.087683 -0.185591 0.481873
v -0.071946 -0.185591 0.480691
v -0.073129 -0.185591 0.464867
v 0.073128 -0.185591 0.481874
v 0.088866 -0.185591 0.480691
v 0.087683 -0.185591 0.464867
v 0.071946 -0.185591 0.466050
v 0.087683 -0.232103 0.480691
v 0.088866 -0.230920 0.480691
v -0.087683 -0.232103 0.480691
v -0.087683 -0.230920 0.481874
v -0.088866 -0.220765 0.480691
v 0.087683 -0.220765 0.481874
v -0.087683 -0.230920 0.464867
v -0.087683 -0.232103 0.466050
v -0.087683 -0.220766 0.464867
v 0.087683 -0.230920 0.464867
v 0.088866 -0.230920 0.466050
v 0.087683 -0.220765 0.464867
v -0.071946 -0.230920 0.481874
v 0.071946 -0.232103 0.480691
v 0.071946 -0.220765 0.480691
v 0.071946 -0.221948 0.481874
v -0.071946 -0.220765 0.480691
v 0.071946 -0.230920 0.464867
v -0.071946 -0.232103 0.466050
v -0.071946 -0.220766 0.466050
v -0.071946 -0.221948 0.464867
v 0.071946 -0.220765 0.466050
v -0.087683 -0.185591 0.464867
v -0.088866 -0.185591 0.480691
v -0.073129 -0.185591 0.481873
v -0.071946 -0.185591 0.466050
v 0.071946 -0.185591 0.480691
v 0.087683 -0.185591 0.481874
v 0.088866 -0.185591 0.466050
v 0.073128 -0.185591 0.464867
v 0.087683 -0.231807 0.481578
v 0.088570 -0.231807 0.480691
v 0.088570 -0.230920 0.481578
v -0.088571 -0.231807 0.480691
v -0.087683 -0.231807 0.481578
v -0.088571 -0.230920 0.481578
v -0.088571 -0.220765 0.481578
v 0.088570 -0.220765 0.481578
v -0.088571 -0.230920 0.465163
v -0.087683 -0.231807 0.465163
v -0.088571 -0.231807 0.466050
v -0.088571 -0.220766 0.465163
v 0.087683 -0.231807 0.465163
v 0.088570 -0.230920 0.465163
v 0.088570 -0.231807 0.466050
v 0.088570 -0.220765 0.465163
v -0.071946 -0.231807 0.481578
v 0.071946 -0.231807 0.481578
v 0.072537 -0.220765 0.481282
v 0.071946 -0.221357 0.481282
v 0.073128 -0.220765 0.481874
v -0.071946 -0.221948 0.481874
v -0.072538 -0.220765 0.481282
v 0.071946 -0.231807 0.465163
v -0.071946 -0.231807 0.465163
v -0.072538 -0.220766 0.465459
v -0.071946 -0.221357 0.465459
v -0.073129 -0.220766 0.464867
v 0.071946 -0.221948 0.464867
v 0.071946 -0.221357 0.465459
v -0.088571 -0.185591 0.465163
v -0.088571 -0.185591 0.481578
v -0.072242 -0.185591 0.481578
v -0.072242 -0.185591 0.465163
v 0.072241 -0.185591 0.481578
v 0.088570 -0.185591 0.481578
v 0.088570 -0.185591 0.465163
v 0.072241 -0.185591 0.465163
v 0.088348 -0.231585 0.481578
v -0.088571 -0.231585 0.481356
v -0.088571 -0.231585 0.465385
v 0.088348 -0.231807 0.465385
v -0.071946 -0.221357 0.481282
v 0.072537 -0.220765 0.465459
v -0.360827 -0.234714 0.635981
v 0.360827 -0.232927 0.634195
v -0.362613 0.232927 0.635981
v 0.360827 0.232927 0.634195
v -0.360827 -0.234714 0.679865
v 0.362613 -0.232927 0.679865
v -0.362613 0.232927 0.679865
v 0.360827 0.234714 0.679865
v -0.362613 -0.232927 0.635981
v -0.360827 -0.232927 0.634195
v 0.362613 -0.232927 0.635981
v 0.360827 -0.234714 0.635981
v -0.360827 0.234714 0.635981
v -0.360827 0.232927 0.634195
v 0.360827 0.234714 0.635981
v 0.362613 0.232927 0.635981
v -0.360827 -0.232927 0.681651
v -0.362613 -0.232927 0.679865
v 0.360827 -0.232927 0.681651
v 0.360827 -0.234714 0.679865
v -0.360827 0.232927 0.681651
v -0.360827 0.234714 0.679865
v 0.360827 0.232927 0.681651
v 0.362613 0.232927 0.679865
f 4 3 1
f 2 1 3
f 1 5 6
f 1 6 4
f 5 7 8
f 5 8 6
f 3 7 2
f 7 3 8
f 14 13 15
f 13 16 15
f 4 6 17
f 17 6 18
f 3 17 19
f 17 3 4
f 19 8 3
f 8 19 20
f 20 6 8
f 6 20 18
f 5 16 7
f 16 5 15
f 2 7 16
f 2 16 13
f 2 14 1
f 14 2 13
f 5 1 14
f 5 14 15
f 21 18 22
f 17 18 21
f 17 23 19
f 23 17 21
f 19 24 20
f 24 19 23
f 22 20 24
f 18 20 22
f 21 22 26
f 21 26 25
f 21 27 23
f 27 21 25
f 23 28 24
f 28 23 27
f 28 26 24
f 22 24 26
f 25 30 29
f 30 25 26
f 27 29 31
f 29 27 25
f 31 28 27
f 28 31 32
f 32 30 26
f 32 26 28
f 34 33 30
f 30 33 29
f 33 35 29
f 29 35 31
f 35 36 31
f 31 36 32
f 36 34 32
f 32 34 30
f 38 37 34
f 33 34 37
f 37 39 33
f 35 33 39
f 39 36 35
f 36 39 40
f 40 38 36
f 34 36 38
f 37 9 10
f 9 37 38
f 39 10 11
f 10 39 37
f 40 11 12
f 11 40 39
f 12 38 40
f 38 12 9
f 43 42 41
f 43 41 44
f 51 49 52
f 49 51 50
f 55 54 53
f 55 53 56
f 57 59 58
f 59 57 60
f 61 59 62
f 59 61 58
f 60 63 64
f 57 63 60
f 59 66 65
f 66 59 60
f 62 65 67
f 65 62 59
f 66 64 68
f 60 64 66
f 65 70 69
f 70 65 66
f 67 69 71
f 69 67 65
f 70 68 72
f 66 68 70
f 73 70 74
f 70 73 69
f 71 69 75
f 75 69 73
f 74 72 76
f 72 74 70
f 44 78 43
f 79 78 44
f 57 44 41
f 44 57 79
f 63 41 42
f 41 63 57
f 47 80 79
f 80 47 48
f 58 48 45
f 48 58 80
f 45 57 58
f 57 45 46
f 46 79 57
f 79 46 47
f 77 51 52
f 51 77 80
f 50 61 49
f 58 61 50
f 51 58 50
f 80 58 51
f 78 53 54
f 53 78 79
f 56 77 55
f 80 77 56
f 56 79 80
f 79 56 53
f 83 82 81
f 83 81 84
f 87 85 88
f 85 87 86
f 89 87 90
f 87 89 86
f 91 89 90
f 91 90 92
f 92 85 91
f 85 92 88
f 88 93 87
f 93 88 94
f 90 93 95
f 93 90 87
f 92 90 95
f 92 95 96
f 94 92 96
f 88 92 94
f 98 97 93
f 98 93 94
f 95 97 99
f 97 95 93
f 96 95 100
f 100 95 99
f 94 96 100
f 94 100 98
f 97 102 101
f 102 97 98
f 99 97 103
f 103 97 101
f 103 100 99
f 100 103 104
f 104 98 100
f 98 104 102
f 106 105 101
f 106 101 102
f 103 108 107
f 103 101 108
f 105 108 101
f 103 109 104
f 109 103 107
f 110 104 109
f 102 104 110
f 110 106 102
f 112 111 114
f 112 114 113
f 105 116 115
f 116 105 106
f 108 115 117
f 108 105 115
f 118 110 139
f 110 116 106
f 116 110 118
f 107 108 119
f 119 108 120
f 107 121 109
f 121 107 119
f 121 110 109
f 110 121 122
f 122 139 110
f 115 116 123
f 124 123 116
f 117 123 125
f 123 117 115
f 118 125 126
f 125 118 117
f 126 124 118
f 118 124 116
f 119 120 127
f 127 120 128
f 121 127 129
f 127 121 119
f 121 130 122
f 130 121 129
f 120 122 128
f 130 128 122
f 124 81 123
f 81 124 84
f 125 123 82
f 82 123 81
f 125 83 126
f 83 125 82
f 126 84 124
f 84 126 83
f 128 111 127
f 111 128 114
f 129 127 111
f 129 111 112
f 129 113 130
f 113 129 112
f 128 130 114
f 114 130 113
f 132 131 138
f 138 131 133
f 134 132 138
f 134 138 135
f 136 134 135
f 136 135 137
f 131 136 133
f 133 136 137
f 120 108 140
f 140 108 117
f 139 117 118
f 117 139 140
f 122 140 139
f 140 122 120
f 214 150 178
f 150 214 175
f 146 142 167
f 142 146 145
f 180 183 221
f 183 180 153
f 173 144 164
f 144 173 148
f 149 152 176
f 152 149 181
f 177 182 179
f 182 177 184
f 150 141 178
f 214 166 175
f 221 172 180
f 153 169 183
f 176 147 163
f 147 176 152
f 149 165 181
f 165 170 181
f 186 146 167
f 146 186 155
f 156 143 187
f 187 143 151
f 182 157 179
f 157 182 188
f 171 185 220
f 220 185 158
f 159 213 190
f 190 213 168
f 148 191 144
f 160 144 191
f 154 192 174
f 174 192 161
f 189 184 177
f 184 189 162
f 141 231 195
f 142 232 198
f 145 233 203
f 147 234 207
f 214 215 151
f 215 214 235
f 199 198 143
f 143 198 166
f 197 209 166
f 175 166 209
f 168 141 200
f 200 141 195
f 204 201 146
f 145 146 201
f 142 145 196
f 196 145 203
f 216 172 205
f 172 216 180
f 172 174 206
f 206 174 208
f 194 207 164
f 164 207 173
f 209 210 175
f 150 175 210
f 210 193 150
f 141 150 193
f 212 235 178
f 214 178 235
f 217 180 216
f 180 217 153
f 202 153 217
f 153 202 169
f 222 183 219
f 183 222 221
f 204 223 171
f 171 223 185
f 224 167 199
f 167 224 186
f 187 215 225
f 215 187 151
f 218 188 182
f 188 218 226
f 211 189 177
f 189 211 227
f 190 168 228
f 228 168 200
f 208 229 148
f 191 148 229
f 236 192 154
f 192 236 230
f 141 193 231
f 163 231 193
f 231 163 194
f 195 231 164
f 231 194 164
f 142 196 232
f 232 165 197
f 165 232 196
f 166 198 232
f 166 232 197
f 145 201 233
f 233 169 202
f 169 233 201
f 170 203 233
f 170 233 202
f 147 205 234
f 172 234 205
f 234 172 206
f 173 207 234
f 173 234 206
f 211 177 212
f 178 213 211
f 178 211 212
f 235 179 215
f 218 182 219
f 219 183 218
f 218 183 220
f 236 221 222
f 221 236 154
f 236 222 184
f 167 142 199
f 198 199 142
f 165 149 197
f 209 197 149
f 164 144 195
f 200 195 144
f 201 204 169
f 169 204 171
f 196 203 165
f 165 203 170
f 152 205 147
f 205 152 216
f 173 208 148
f 208 173 206
f 163 147 194
f 194 147 207
f 149 176 209
f 210 209 176
f 176 163 210
f 193 210 163
f 177 179 212
f 235 212 179
f 181 216 152
f 216 181 217
f 170 217 181
f 217 170 202
f 184 219 182
f 219 184 222
f 155 204 146
f 204 155 223
f 224 199 156
f 156 199 143
f 179 157 215
f 225 215 157
f 220 158 218
f 218 158 226
f 227 211 159
f 159 211 213
f 144 160 200
f 228 200 160
f 174 161 208
f 208 161 229
f 162 236 184
f 236 162 230
f 213 141 168
f 141 213 178
f 154 172 221
f 172 154 174
f 166 151 143
f 151 166 214
f 169 220 183
f 220 169 171
f 310 246 274
f 246 310 271
f 242 238 263
f 238 242 241
f 276 279 317
f 279 276 249
f 269 240 260
f 240 269 244
f 245 248 272
f 248 245 277
f 273 278 275
f 278 273 280
f 246 237 274
f 310 262 271
f 317 268 276
f 249 265 279
f 272 243 259
f 243 272 248
f 245 261 277
f 261 266 277
f 282 242 263
f 242 282 251
f 252 239 283
f 283 239 247
f 278 253 275
f 253 278 284
f 267 281 316
f 316 281 254
f 255 309 286
f 286 309 264
f 244 287 240
f 256 240 287
f 250 288 270
f 270 288 257
f 285 280 273
f 280 285 258
f 237 327 291
f 238 328 294
f 241 329 299
f 243 330 303
f 310 311 247
f 311 310 331
f 295 294 239
f 239 294 262
f 293 305 262
f 271 262 305
f 264 237 296
f 296 237 291
f 300 297 242
f 241 242 297
f 238 241 292
f 292 241 299
f 312 268 301
f 268 312 276
f 268 270 302
f 302 270 304
f 290 303 260
f 260 303 269
f 305 306 271
f 246 271 306
f 306 289 246
f 237 246 289
f 308 331 274
f 310 274 331
f 313 276 312
f 276 313 249
f 298 249 313
f 249 298 265
f 318 279 315
f 279 318 317
f 300 319 267
f 267 319 281
f 320 263 295
f 263 320 282
f 283 311 321
f 311 283 247
f 314 284 278
f 284 314 322
f 307 285 273
f 285 307 323
f 286 264 324
f 324 264 296
f 304 325 244
f 287 244 325
f 332 288 250
f 288 332 326
f 237 289 327
f 259 327 289
f 327 259 290
f 291 327 260
f 327 290 260
f 238 292 328
f 328 261 293
f 261 328 292
f 262 294 328
f 262 328 293
f 241 297 329
f 329 265 298
f 265 329 297
f 266 299 329
f 266 329 298
f 243 301 330
f 268 330 301
f 330 268 302
f 269 303 330
f 269 330 302
f 307 273 308
f 274 309 307
f 274 307 308
f 331 275 311
f 314 278 315
f 315 279 314
f 314 279 316
f 332 317 318
f 317 332 250
f 332 318 280
f 263 238 295
f 294 295 238
f 261 245 293
f 305 293 245
f 260 240 291
f 296 291 240
f 297 300 265
f 265 300 267
f 292 299 261
f 261 299 266
f 248 301 243
f 301 248 312
f 269 304 244
f 304 269 302
f 259 243 290
f 290 243 303
f 245 272 305
f 306 305 272
f 272 259 306
f 289 306 259
f 273 275 308
f 331 308 275
f 277 312 248
f 312 277 313
f 266 313 277
f 313 266 298
f 280 315 278
f 315 280 318
f 251 300 242
f 300 251 319
f 320 295 252
f 252 295 239
f 275 253 311
f 321 311 253
f 316 254 314
f 314 254 322
f 323 307 255
f 255 307 309
f 240 256 296
f 324 296 256
f 270 257 304
f 304 257 325
f 258 332 280
f 332 258 326
f 309 237 264
f 237 309 274
f 250 268 317
f 268 250 270
f 262 247 239
f 247 262 310
f 265 316 279
f 316 265 267
f 334 342 336
f 342 346 336
f 355 353 349
f 355 349 351
f 352 337 333
f 352 333 344
f 356 338 343
f 356 343 348
f 354 340 347
f 354 347 345
f 350 339 335
f 350 335 341
f 333 341 342
f 334 343 344
f 335 345 346
f 336 347 348
f 337 349 350
f 338 351 352
f 339 353 354
f 340 355 356
f 335 342 341
f 342 335 346
f 347 346 345
f 346 347 336
f 343 336 348
f 336 343 334
f 333 334 344
f 334 333 342
f 337 352 349
f 351 349 352
f 338 356 351
f 355 351 356
f 340 354 355
f 353 355 354
f 339 350 353
f 349 353 350
f 352 344 338
f 338 344 343
f 350 341 337
f 337 341 333
f 356 348 340
f 340 348 347
f 354 345 339
f 339 345 335
