# GENERATED by scripts/dae_to_obj.py from aws_ChairD_01_visual.DAE.
# <unit meter="0.01"> is baked into the vertices; OBJ has no unit field.
v -0.115259 -0.196732 0.359178
v 0.272892 -0.214950 0.367674
v -0.115461 0.194963 0.381544
v 0.276634 0.196408 0.370740
v -0.122319 -0.208442 0.388354
v 0.275375 -0.199157 0.397385
v -0.122514 0.207674 0.410653
v 0.274030 0.216629 0.395386
v 0.193313 -0.199906 0.388933
v 0.200542 0.217928 0.395757
v 0.206959 0.207495 0.374860
v 0.207028 -0.207761 0.362743
v 0.170250 0.211923 0.009820
v 0.173183 -0.194604 0.002999
v 0.111090 -0.217979 0.011356
v 0.104983 0.200481 0.005441
v 0.171034 0.210201 0.030399
v 0.116627 0.206564 0.029700
v 0.116628 -0.206837 0.023979
v 0.177317 -0.191633 0.024240
v -0.220035 0.220814 0.012240
v -0.212827 -0.245917 0.018058
v -0.214671 -0.223068 0.026139
v -0.214669 0.221121 0.027760
v -0.098269 0.222388 0.416032
v -0.098202 -0.221857 0.390432
v -0.051582 -0.206945 0.358812
v -0.051694 0.206195 0.382503
v -0.192766 -0.188644 0.717976
v -0.173833 -0.205442 0.715153
v -0.173833 0.205507 0.717402
v -0.192821 0.187079 0.719790
v -0.166795 -0.201963 0.597219
v -0.191231 -0.206459 0.599956
v -0.191487 0.205589 0.607689
v -0.168101 0.220091 0.609909
v 0.144668 0.206906 0.115542
v 0.123465 0.195310 0.113109
v 0.123476 -0.196000 0.092957
v 0.147917 -0.188694 0.097072
v 0.276644 -0.197155 0.368070
v 0.272910 0.215490 0.372446
v 0.273996 -0.216094 0.392397
v 0.275355 0.198396 0.398828
v 0.200523 -0.217389 0.384302
v 0.193300 0.199139 0.399026
v 0.173303 0.193854 0.003594
v 0.170214 -0.211390 0.007935
v 0.104863 -0.201281 0.005197
v 0.111110 0.218516 0.013358
v 0.177427 0.190905 0.028874
v 0.171015 -0.209662 0.024761
v -0.212797 0.245917 0.019077
v -0.220127 -0.222839 0.011932
v -0.068100 0.207769 0.407041
v -0.044212 0.221368 0.396545
v -0.044230 -0.220828 0.371139
v -0.068094 -0.208095 0.384138
v -0.172142 -0.185577 0.717129
v -0.172110 0.183990 0.719142
v -0.167941 -0.219694 0.600489
v -0.166932 0.201061 0.605694
v 0.147966 0.187992 0.112727
v 0.144658 -0.206367 0.097107
v 0.231576 -0.004793 0.351159
v 0.150086 -0.004677 0.023367
v 0.143710 -0.004766 0.002200
v 0.074660 -0.004950 0.004399
v -0.265893 -0.005739 0.009197
v -0.261540 -0.005633 0.024855
v 0.072326 -0.004856 0.028892
v 0.138867 -0.004818 0.332890
v -0.101311 -0.004930 0.337774
v -0.164009 -0.004954 0.341678
v -0.176304 -0.004977 0.370259
v -0.242250 -0.005002 0.587607
v -0.226164 -0.004778 0.750376
v -0.203139 -0.004778 0.749688
v -0.211143 -0.005002 0.583008
v -0.106070 -0.004959 0.369867
v 0.144466 -0.004873 0.369022
v 0.226265 -0.004850 0.379804
v 0.102881 -0.004682 0.088229
v 0.131758 -0.004588 0.092299
v -0.098799 -0.005256 0.045708
v -0.067519 -0.220199 0.043555
v -0.067367 -0.237004 0.034133
v -0.074302 -0.219130 0.027498
v -0.104625 -0.005375 0.026703
v -0.074182 0.218223 0.027739
v -0.067347 0.237542 0.035626
v -0.067520 0.219365 0.046443
v -0.193425 -0.005023 0.464567
v -0.145758 -0.204258 0.484186
v -0.146421 -0.222480 0.488403
v -0.170062 -0.209083 0.487412
v -0.224575 -0.005027 0.469487
v -0.170657 0.208254 0.502980
v -0.146925 0.222947 0.506596
v -0.146226 0.203402 0.500514
v -0.119050 -0.164687 0.348466
v -0.187325 -0.164999 0.757017
v -0.095565 -0.222235 0.368512
v 0.266877 -0.158175 0.386830
v 0.259305 0.217740 0.390991
v -0.135091 0.160448 0.376327
v 0.141540 0.152468 -0.000000
v 0.237997 -0.158780 0.389684
v 0.259305 -0.217195 0.385107
v 0.076069 0.220119 0.390991
v 0.247449 0.149739 0.316088
v 0.240052 -0.212588 0.311292
v 0.204016 -0.158061 0.298546
v 0.240052 0.213132 0.327021
v 0.173388 -0.153805 0.008820
v 0.156709 -0.213404 0.011963
v -0.263026 0.198238 0.012660
v 0.156709 0.213948 0.015079
v 0.053464 0.158126 0.368707
v 0.051817 -0.160379 0.374445
v 0.076069 -0.219574 0.371552
v -0.095565 0.222779 0.395481
v -0.134627 -0.165115 0.359935
v 0.141460 -0.157038 -0.000000
v 0.247711 -0.154177 0.308597
v -0.263056 -0.202512 0.012015
v 0.053926 -0.162716 0.355724
v -0.119498 0.160034 0.366060
v -0.187316 0.161640 0.757131
v 0.266427 0.153614 0.387428
v 0.237551 0.154198 0.393534
v 0.203713 0.153614 0.312159
v 0.173467 0.149348 0.010073
v 0.051408 0.155742 0.386382
v 0.149766 0.146842 0.058233
v 0.137602 -0.210053 0.050564
v 0.109790 -0.157476 0.047480
v 0.137602 0.210597 0.063788
v 0.149729 -0.151207 0.050542
v 0.109772 0.153022 0.057538
v -0.085363 0.220724 0.400916
v -0.085414 -0.220194 0.374072
v 0.259443 0.215291 0.399943
v 0.286498 -0.214158 0.392261
v 0.286573 0.214682 0.392838
v 0.259368 -0.214767 0.394499
v 0.074441 0.217475 0.399338
v 0.154507 -0.211813 0.003337
v 0.154587 0.212329 0.004248
v 0.261495 0.209538 0.326466
v 0.261435 -0.209015 0.315515
v 0.184138 0.208604 0.012968
v 0.184057 -0.208086 0.010736
v 0.074365 -0.216952 0.380738
v 0.157252 0.205471 0.063469
v 0.157196 -0.204951 0.052133
v -0.130634 -0.164883 0.352138
v -0.102345 0.206938 0.383286
v 0.261810 0.152390 0.364893
v 0.254492 -0.215856 0.364019
v -0.107010 -0.222662 0.390152
v 0.259536 -0.158590 0.392259
v 0.254039 0.198605 0.400222
v -0.142876 0.160756 0.396662
v 0.278756 -0.216392 0.389276
v -0.113777 -0.208079 0.366863
v 0.282518 0.197930 0.392409
v -0.113893 0.207321 0.390605
v 0.254057 -0.199368 0.395357
v 0.067868 0.200580 0.397677
v 0.254492 0.216401 0.372403
v 0.070534 -0.205220 0.364871
v 0.170247 -0.160656 0.345862
v 0.177133 -0.159219 0.382585
v 0.200843 -0.217834 0.379338
v 0.200843 0.218378 0.390991
v 0.164006 0.150644 0.002518
v 0.151099 -0.196854 0.000834
v 0.094948 0.155927 0.004399
v 0.151219 0.196085 0.001062
v 0.255304 0.211991 0.326882
v 0.258804 -0.193761 0.313863
v 0.221151 -0.199198 0.306072
v 0.221075 0.198495 0.323305
v 0.176186 0.211440 0.014606
v 0.112915 0.218325 0.019398
v 0.112915 -0.217780 0.016119
v 0.182444 -0.193029 0.009388
v 0.168953 -0.152621 0.023660
v 0.152888 -0.212097 0.024257
v 0.092178 -0.160944 0.028802
v 0.152888 0.212641 0.030548
v -0.244789 0.185518 0.009088
v -0.230622 -0.240183 0.018998
v -0.239642 -0.190048 0.023916
v -0.230614 0.239523 0.020330
v -0.107094 0.223199 0.415346
v 0.067875 -0.201358 0.381033
v -0.102233 -0.207693 0.358379
v 0.070418 0.204481 0.382825
v -0.068566 0.159470 0.366298
v -0.073906 -0.161682 0.381892
v -0.045804 -0.221386 0.366395
v -0.045804 0.221930 0.392113
v -0.182145 -0.199014 0.731463
v -0.180574 -0.157146 0.736509
v -0.182158 0.198561 0.732737
v -0.202679 0.155040 0.737862
v -0.202597 -0.159179 0.737173
v -0.142346 -0.165438 0.381272
v -0.068116 -0.164105 0.349476
v -0.244857 -0.190706 0.008863
v 0.094868 -0.160614 0.004393
v 0.163927 -0.155147 0.002205
v 0.262207 -0.156912 0.362556
v 0.176705 0.154621 0.390099
v -0.074357 0.156998 0.396762
v -0.180595 0.152993 0.737301
v -0.131088 0.160224 0.369051
v 0.169816 0.156130 0.356317
v 0.092171 0.156378 0.033769
v -0.239638 0.184988 0.025049
v 0.169020 0.148206 0.027150
v 0.259081 0.154015 0.393655
v -0.177189 -0.220451 0.601140
v -0.180864 -0.161453 0.591764
v -0.177364 0.220857 0.610167
v -0.210589 0.159740 0.600257
v -0.210075 -0.164454 0.595285
v -0.181290 0.156717 0.597422
v 0.151406 0.208358 0.063708
v 0.121754 0.197162 0.062225
v 0.121758 -0.197867 0.049063
v 0.156235 -0.189922 0.051789
v 0.142912 0.145861 0.106526
v 0.134866 -0.208333 0.095408
v 0.114585 -0.155851 0.090052
v 0.134866 0.208878 0.115673
v 0.142915 -0.150189 0.094763
v 0.114544 0.151456 0.105417
v 0.280241 -0.212609 0.369400
v 0.280312 0.213133 0.372575
v 0.279707 -0.214573 0.396495
v 0.279782 0.215097 0.398285
v 0.199561 -0.215354 0.388503
v 0.199637 0.215878 0.399673
v 0.175510 0.210094 0.006482
v 0.175430 -0.209576 0.005290
v 0.109338 -0.216440 0.007617
v 0.109418 0.216956 0.008567
v 0.178656 0.207263 0.029899
v 0.178582 -0.206744 0.024682
v -0.233580 0.239054 0.012204
v -0.233648 -0.239734 0.011639
v -0.094264 0.220161 0.415583
v -0.044456 0.219339 0.399548
v -0.087994 0.222280 0.399348
v -0.088007 -0.221739 0.372237
v -0.044525 -0.218814 0.374747
v -0.094251 -0.219644 0.390130
v -0.171636 -0.196980 0.731140
v -0.171590 0.196514 0.732488
v -0.163482 -0.217454 0.599655
v -0.163579 0.217838 0.609137
v 0.148793 0.204142 0.115146
v 0.148753 -0.203621 0.097758
v 0.259340 0.217315 0.395824
v 0.282536 -0.198687 0.392100
v 0.278775 0.216932 0.391453
v 0.259321 -0.216776 0.390089
v 0.075662 0.219598 0.395673
v 0.155203 -0.213475 0.007163
v 0.155223 0.214013 0.009080
v 0.258813 0.193034 0.323594
v 0.255290 -0.211452 0.314382
v 0.182564 0.192290 0.011134
v 0.176166 -0.210902 0.011911
v 0.075643 -0.219059 0.376573
v 0.156315 0.189209 0.062001
v 0.151392 -0.207819 0.051686
v -0.152254 -0.004948 0.337617
v -0.212300 -0.004740 0.775289
v 0.233737 -0.004835 0.374703
v 0.204948 -0.004857 0.376507
v 0.179498 -0.004736 0.288084
v 0.153145 -0.004719 0.008801
v 0.019500 -0.004912 0.361557
v -0.168255 -0.004962 0.349282
v 0.121252 -0.004833 -0.000000
v 0.223994 -0.004705 0.299128
v -0.286573 -0.005738 0.013071
v 0.020497 -0.004884 0.342825
v 0.094372 -0.004743 0.046921
v 0.135059 -0.004627 0.049463
v -0.084336 0.169536 0.026698
v -0.065436 -0.236484 0.039259
v -0.077455 -0.174347 0.045095
v -0.065436 0.237028 0.041680
v -0.084416 -0.174656 0.026651
v -0.077458 0.169374 0.047349
v -0.069391 0.236082 0.030847
v -0.069471 -0.235566 0.030102
v -0.155645 -0.223322 0.489207
v -0.160897 -0.162957 0.476589
v -0.156167 0.223795 0.506929
v -0.190857 0.161470 0.491132
v -0.190030 -0.166210 0.480588
v -0.161634 0.158202 0.487920
v -0.142028 -0.220113 0.487427
v -0.142467 0.220567 0.505599
v 0.251339 0.151835 0.341725
v 0.264532 0.195447 0.348751
v 0.247667 -0.210453 0.338097
v 0.263362 -0.209514 0.341660
v 0.215927 -0.200427 0.335644
v 0.189662 -0.157891 0.324633
v 0.247751 0.211015 0.350210
v 0.215888 0.200005 0.350430
v 0.263474 0.210041 0.350352
v 0.251661 -0.156404 0.336707
v 0.264498 -0.196313 0.342361
v 0.161689 -0.004849 0.313429
v 0.224366 -0.004779 0.326153
v 0.189227 0.153373 0.336740
v 0.268212 0.209409 0.351201
v 0.268014 -0.208987 0.343958
v 0.255814 0.151283 0.344517
v 0.266234 0.194439 0.343226
v 0.248462 -0.214491 0.342002
v 0.262628 -0.212910 0.336601
v 0.213098 -0.204081 0.338385
v 0.184864 -0.159533 0.325382
v 0.248590 0.215065 0.353856
v 0.215104 0.202302 0.345111
v 0.265679 0.214053 0.353733
v 0.256044 -0.155749 0.339618
v 0.269036 -0.195708 0.344951
v 0.156619 -0.004782 0.313314
v 0.228383 -0.004756 0.329252
v 0.184406 0.155047 0.337311
v 0.272511 0.211643 0.353459
v 0.272286 -0.211089 0.346606
v 0.253444 0.150846 0.336464
v 0.269214 0.195003 0.351108
v 0.246081 -0.213952 0.333309
v 0.265553 -0.213492 0.345455
v 0.215080 -0.202879 0.330430
v 0.189400 -0.159184 0.319027
v 0.245953 0.214468 0.345568
v 0.212929 0.203688 0.353055
v 0.262535 0.213428 0.345596
v 0.253873 -0.155340 0.331535
v 0.266413 -0.195209 0.336982
v 0.161746 -0.004772 0.307660
v 0.227186 -0.004742 0.321035
v 0.189123 0.154697 0.331166
v 0.269296 0.211029 0.345581
v 0.269390 -0.210535 0.338309
v 0.251339 0.151835 0.341725
v 0.264532 0.195447 0.348751
v 0.247667 -0.210453 0.338097
v 0.263362 -0.209514 0.341660
v 0.215927 -0.200427 0.335644
v 0.189662 -0.157891 0.324633
v 0.247751 0.211015 0.350210
v 0.215888 0.200005 0.350430
v 0.263474 0.210041 0.350352
v 0.251661 -0.156404 0.336707
v 0.264498 -0.196313 0.342361
v 0.161689 -0.004849 0.313429
v 0.224366 -0.004779 0.326153
v 0.189227 0.153373 0.336740
v 0.268212 0.209409 0.351201
v 0.268014 -0.208987 0.343958
f 1 157 101
f 1 101 199
f 157 74 281
f 157 281 101
f 211 27 199
f 211 199 101
f 29 205 102
f 29 102 209
f 205 30 261
f 205 261 102
f 59 206 102
f 59 102 261
f 206 78 282
f 206 282 102
f 1 199 103
f 1 103 166
f 199 27 203
f 199 203 103
f 57 258 103
f 57 103 203
f 258 26 161
f 258 161 103
f 5 166 103
f 5 103 161
f 41 215 104
f 41 104 268
f 215 65 283
f 215 283 104
f 162 6 268
f 162 268 104
f 42 171 105
f 42 105 269
f 171 11 176
f 171 176 105
f 10 267 105
f 10 105 176
f 267 8 269
f 267 269 105
f 3 219 106
f 3 106 168
f 219 74 288
f 219 288 106
f 164 7 168
f 164 168 106
f 9 169 108
f 9 108 174
f 169 6 162
f 169 162 108
f 284 108 162
f 284 162 82
f 12 160 109
f 12 109 175
f 160 2 165
f 160 165 109
f 43 270 109
f 43 109 165
f 270 45 175
f 270 175 109
f 11 200 110
f 11 110 176
f 200 28 204
f 200 204 110
f 56 271 110
f 56 110 204
f 271 10 176
f 271 176 110
f 159 327 344
f 159 344 4
f 65 339 327
f 65 327 159
f 160 329 346
f 160 346 2
f 12 331 329
f 12 329 160
f 173 332 331
f 173 331 12
f 173 72 338
f 173 338 332
f 11 171 333
f 11 333 350
f 171 42 335
f 171 335 333
f 28 200 119
f 28 119 201
f 200 11 220
f 200 220 119
f 72 292 119
f 72 119 220
f 58 198 120
f 58 120 202
f 198 9 174
f 198 174 120
f 287 120 174
f 287 174 81
f 27 172 121
f 27 121 203
f 172 12 175
f 172 175 121
f 45 278 121
f 45 121 175
f 278 57 203
f 278 203 121
f 28 158 122
f 28 122 204
f 158 3 168
f 158 168 122
f 7 197 122
f 7 122 168
f 197 25 257
f 197 257 122
f 56 204 122
f 56 122 257
f 5 161 303
f 5 303 96
f 161 26 95
f 161 95 303
f 58 202 304
f 58 304 94
f 202 80 93
f 202 93 304
f 25 197 305
f 25 305 99
f 197 7 98
f 197 98 305
f 7 164 306
f 7 306 98
f 164 75 97
f 164 97 306
f 211 101 281
f 211 281 73
f 209 102 282
f 209 282 77
f 162 104 283
f 162 283 82
f 157 1 166
f 157 166 123
f 5 210 123
f 5 123 166
f 210 75 288
f 210 288 123
f 174 108 284
f 174 284 81
f 215 41 337
f 215 337 336
f 173 12 172
f 173 172 127
f 27 211 127
f 27 127 172
f 211 73 292
f 211 292 127
f 202 120 287
f 202 287 80
f 210 5 96
f 210 96 307
f 164 106 288
f 164 288 75
f 201 119 292
f 201 292 73
f 219 3 158
f 219 158 128
f 28 201 128
f 28 128 158
f 201 73 281
f 201 281 128
f 218 60 262
f 218 262 129
f 31 207 129
f 31 129 262
f 207 32 208
f 207 208 129
f 77 282 129
f 77 129 208
f 159 4 167
f 159 167 130
f 44 224 130
f 44 130 167
f 224 82 283
f 224 283 130
f 224 44 163
f 224 163 131
f 46 216 131
f 46 131 163
f 216 81 284
f 216 284 131
f 220 11 350
f 220 350 340
f 216 46 170
f 216 170 134
f 55 217 134
f 55 134 170
f 217 80 287
f 217 287 134
f 217 55 100
f 217 100 308
f 61 30 205
f 61 205 225
f 34 225 205
f 34 205 29
f 79 78 206
f 79 206 226
f 33 226 206
f 33 206 59
f 35 32 207
f 35 207 227
f 36 227 207
f 36 207 31
f 76 77 208
f 76 208 228
f 32 35 228
f 32 228 208
f 218 78 79
f 218 79 230
f 34 29 209
f 34 209 229
f 76 229 209
f 76 209 77
f 62 60 218
f 62 218 230
f 25 255 141
f 25 141 257
f 255 55 256
f 255 256 141
f 56 257 141
f 56 141 256
f 26 258 142
f 26 142 260
f 258 57 259
f 258 259 142
f 58 260 142
f 58 142 259
f 44 244 143
f 44 143 163
f 244 8 267
f 244 267 143
f 10 246 143
f 10 143 267
f 246 46 163
f 246 163 143
f 2 241 144
f 2 144 165
f 241 41 268
f 241 268 144
f 6 243 144
f 6 144 268
f 243 43 165
f 243 165 144
f 4 242 145
f 4 145 167
f 242 42 269
f 242 269 145
f 8 244 145
f 8 145 269
f 244 44 167
f 244 167 145
f 9 245 146
f 9 146 169
f 245 45 270
f 245 270 146
f 43 243 146
f 43 146 270
f 243 6 169
f 243 169 146
f 46 246 147
f 46 147 170
f 246 10 271
f 246 271 147
f 56 256 147
f 56 147 271
f 256 55 170
f 256 170 147
f 42 242 341
f 42 341 335
f 4 344 341
f 4 341 242
f 41 241 342
f 41 342 337
f 2 346 342
f 2 342 241
f 58 259 154
f 58 154 198
f 259 57 278
f 259 278 154
f 45 245 154
f 45 154 278
f 245 9 198
f 245 198 154
f 26 260 309
f 26 309 95
f 260 58 94
f 260 94 309
f 55 255 310
f 55 310 100
f 255 25 99
f 255 99 310
f 61 263 261
f 61 261 30
f 33 59 261
f 33 261 263
f 62 264 262
f 62 262 60
f 36 31 262
f 36 262 264
f 74 219 128
f 74 128 281
f 78 218 129
f 78 129 282
f 65 159 130
f 65 130 283
f 82 224 131
f 82 131 284
f 220 340 338
f 220 338 72
f 81 216 134
f 81 134 287
f 80 217 308
f 80 308 93
f 74 157 123
f 74 123 288
f 65 215 336
f 65 336 339
f 72 173 127
f 72 127 292
f 75 210 307
f 75 307 97
f 95 61 225
f 95 225 303
f 96 303 225
f 96 225 34
f 94 304 226
f 94 226 33
f 98 35 227
f 98 227 305
f 99 305 227
f 99 227 36
f 35 98 306
f 35 306 228
f 79 226 304
f 79 304 93
f 96 34 229
f 96 229 307
f 76 97 307
f 76 307 229
f 76 228 306
f 76 306 97
f 100 62 230
f 100 230 308
f 79 93 308
f 79 308 230
f 94 33 263
f 94 263 309
f 61 95 309
f 61 309 263
f 99 36 264
f 99 264 310
f 62 100 310
f 62 310 264
f 327 311 360
f 327 360 344
f 339 323 311
f 339 311 327
f 329 313 362
f 329 362 346
f 331 315 313
f 331 313 329
f 332 316 315
f 332 315 331
f 338 322 316
f 338 316 332
f 333 317 366
f 333 366 350
f 335 319 317
f 335 317 333
f 337 321 368
f 337 368 336
f 350 366 372
f 350 372 340
f 341 373 319
f 341 319 335
f 344 360 373
f 344 373 341
f 342 374 321
f 342 321 337
f 346 362 374
f 346 374 342
f 340 372 322
f 340 322 338
f 336 368 323
f 336 323 339
f 16 180 107
f 16 107 179
f 180 47 177
f 180 177 107
f 67 289 107
f 67 107 177
f 39 236 112
f 39 112 183
f 37 238 114
f 37 114 181
f 20 188 115
f 20 115 189
f 188 14 214
f 188 214 115
f 67 286 115
f 67 115 214
f 19 187 116
f 19 116 190
f 187 15 272
f 187 272 116
f 48 277 116
f 48 116 272
f 277 52 190
f 277 190 116
f 24 196 117
f 24 117 222
f 196 53 253
f 196 253 117
f 21 193 117
f 21 117 253
f 193 69 291
f 193 291 117
f 17 185 118
f 17 118 192
f 185 13 273
f 185 273 118
f 50 186 118
f 50 118 273
f 186 18 192
f 186 192 118
f 16 179 295
f 16 295 90
f 179 68 89
f 179 89 295
f 15 187 296
f 15 296 87
f 187 19 86
f 187 86 296
f 19 191 297
f 19 297 86
f 191 71 85
f 191 85 297
f 18 186 298
f 18 298 92
f 186 50 91
f 186 91 298
f 214 14 178
f 214 178 124
f 49 213 124
f 49 124 178
f 213 68 289
f 213 289 124
f 40 239 125
f 40 125 182
f 237 113 285
f 237 285 83
f 189 115 286
f 189 286 66
f 212 54 254
f 212 254 126
f 194 126 254
f 194 254 22
f 194 23 195
f 194 195 126
f 70 291 126
f 70 126 195
f 213 49 88
f 213 88 299
f 179 107 289
f 179 289 68
f 235 111 290
f 235 290 84
f 222 117 291
f 222 291 70
f 240 132 184
f 240 184 38
f 240 83 285
f 240 285 132
f 177 47 276
f 177 276 133
f 51 223 133
f 51 133 276
f 223 66 286
f 223 286 133
f 221 18 92
f 221 92 300
f 84 294 135
f 84 135 235
f 51 279 135
f 51 135 223
f 279 63 235
f 279 235 135
f 39 233 136
f 39 136 236
f 233 19 190
f 233 190 136
f 52 280 136
f 52 136 190
f 280 64 236
f 280 236 136
f 83 293 137
f 83 137 237
f 19 233 137
f 19 137 191
f 233 39 237
f 233 237 137
f 37 231 138
f 37 138 238
f 231 17 192
f 231 192 138
f 18 232 138
f 18 138 192
f 232 38 238
f 232 238 138
f 40 234 139
f 40 139 239
f 234 20 189
f 234 189 139
f 294 139 189
f 294 189 66
f 294 84 239
f 294 239 139
f 240 140 293
f 240 293 83
f 140 221 71
f 140 71 293
f 38 232 140
f 38 140 240
f 232 18 221
f 232 221 140
f 274 111 235
f 274 235 63
f 275 112 236
f 275 236 64
f 183 113 237
f 183 237 39
f 184 114 238
f 184 238 38
f 290 125 239
f 290 239 84
f 14 248 148
f 14 148 178
f 248 48 272
f 248 272 148
f 15 249 148
f 15 148 272
f 249 49 178
f 249 178 148
f 16 250 149
f 16 149 180
f 250 50 273
f 250 273 149
f 13 247 149
f 13 149 273
f 247 47 180
f 247 180 149
f 17 251 152
f 17 152 185
f 251 51 276
f 251 276 152
f 47 247 152
f 47 152 276
f 247 13 185
f 247 185 152
f 20 252 153
f 20 153 188
f 252 52 277
f 252 277 153
f 48 248 153
f 48 153 277
f 248 14 188
f 248 188 153
f 50 250 301
f 50 301 91
f 250 16 90
f 250 90 301
f 49 249 302
f 49 302 88
f 249 15 87
f 249 87 302
f 37 265 155
f 37 155 231
f 265 63 279
f 265 279 155
f 51 251 155
f 51 155 279
f 251 17 231
f 251 231 155
f 40 266 156
f 40 156 234
f 266 64 280
f 266 280 156
f 52 252 156
f 52 156 280
f 252 20 234
f 252 234 156
f 265 150 274
f 265 274 63
f 265 37 181
f 265 181 150
f 266 151 275
f 266 275 64
f 266 40 182
f 266 182 151
f 67 177 133
f 67 133 286
f 71 221 300
f 71 300 85
f 67 214 124
f 67 124 289
f 212 126 291
f 212 291 69
f 68 213 299
f 68 299 89
f 191 137 293
f 191 293 71
f 223 135 294
f 223 294 66
f 90 295 193
f 90 193 21
f 86 23 194
f 86 194 296
f 87 296 194
f 87 194 22
f 23 86 297
f 23 297 195
f 91 53 196
f 91 196 298
f 92 298 196
f 92 196 24
f 88 54 212
f 88 212 299
f 69 89 299
f 69 299 212
f 70 195 297
f 70 297 85
f 69 193 295
f 69 295 89
f 92 24 222
f 92 222 300
f 70 85 300
f 70 300 222
f 90 21 253
f 90 253 301
f 53 91 301
f 53 301 253
f 87 22 254
f 87 254 302
f 54 88 302
f 54 302 254
f 343 111 274
f 343 274 328
f 355 290 111
f 355 111 343
f 345 112 275
f 345 275 330
f 347 183 112
f 347 112 345
f 348 113 183
f 348 183 347
f 285 113 348
f 285 348 354
f 114 184 334
f 114 334 349
f 181 114 349
f 181 349 351
f 182 125 352
f 182 352 353
f 184 132 356
f 184 356 334
f 150 181 351
f 150 351 357
f 328 274 150
f 328 150 357
f 151 182 353
f 151 353 358
f 330 275 151
f 330 151 358
f 132 285 354
f 132 354 356
f 125 290 355
f 125 355 352
f 328 312 359
f 328 359 343
f 343 359 371
f 343 371 355
f 330 314 361
f 330 361 345
f 345 361 363
f 345 363 347
f 347 363 364
f 347 364 348
f 348 364 370
f 348 370 354
f 334 318 365
f 334 365 349
f 349 365 367
f 349 367 351
f 352 320 369
f 352 369 353
f 356 324 318
f 356 318 334
f 351 367 325
f 351 325 357
f 357 325 312
f 357 312 328
f 353 369 326
f 353 326 358
f 358 326 314
f 358 314 330
f 354 370 324
f 354 324 356
f 355 371 320
f 355 320 352
