# GENERATED by scripts/dae_to_obj.py from aws_CoffeeTable_01_visual.DAE.
# <unit meter="0.01"> is baked into the vertices; OBJ has no unit field.
v 0.664252 0.317672 0.300574
v 0.664252 0.317672 0.020000
v 0.664252 0.330114 0.001000
v 0.664252 0.330114 0.319574
v 0.664252 0.003366 0.319574
v 0.664252 0.003366 0.301574
v 0.664252 0.004021 0.300574
v 0.664252 -0.311596 0.019000
v 0.664252 -0.311596 0.301574
v 0.664252 -0.323382 0.319574
v 0.664252 -0.323382 0.001000
v -0.650732 0.003366 0.319574
v -0.650732 0.003366 0.301574
v -0.650732 0.002711 0.300574
v 0.664252 0.004021 0.020000
v 0.664252 0.003366 0.019000
v 0.662937 0.001074 0.020000
v 0.662937 -0.308649 0.020000
v 0.011362 0.330114 0.020000
v 0.633350 0.330114 0.020000
v 0.639267 0.330768 0.019000
v 0.006760 0.330768 0.019000
v 0.662937 -0.308649 0.300574
v 0.662937 0.001074 0.300574
v -0.649417 0.003366 0.297074
v -0.649417 0.003366 0.023500
v -0.650732 0.002711 0.020000
v 0.633350 0.330114 0.300574
v 0.011362 0.330114 0.300574
v 0.006760 0.330768 0.301574
v 0.639267 0.330768 0.301574
v -0.619830 -0.009730 0.319574
v -0.024142 -0.009730 0.319574
v -0.018225 -0.009076 0.320574
v -0.625747 -0.009076 0.320574
v -0.024142 -0.310941 0.319574
v -0.619830 -0.310941 0.319574
v -0.625747 -0.311596 0.320574
v -0.018225 -0.311596 0.320574
v 0.662937 -0.324037 0.001000
v 0.662937 -0.323382 -0.000000
v 0.662937 0.330114 -0.000000
v 0.662937 0.330768 0.001000
v -0.650732 -0.323382 0.001000
v -0.649417 -0.323382 -0.000000
v -0.649417 -0.324037 0.001000
v -0.649417 0.330768 0.001000
v -0.649417 0.330114 -0.000000
v -0.650732 0.330114 0.001000
v 0.662937 -0.323382 0.320574
v 0.662937 -0.324037 0.319574
v -0.649417 -0.324037 0.319574
v -0.649417 -0.323382 0.320574
v -0.650732 -0.323382 0.319574
v -0.650732 0.330114 0.319574
v -0.649417 0.330114 0.320574
v -0.649417 0.330768 0.319574
v 0.006760 -0.324037 0.319574
v 0.006103 -0.323382 0.320574
v 0.662937 0.330768 0.319574
v 0.028628 -0.308649 0.023500
v 0.033231 -0.310941 0.023500
v 0.033231 -0.308649 0.020000
v 0.033231 0.001074 0.020000
v 0.033231 0.003366 0.023500
v 0.028628 0.001074 0.023500
v 0.033231 0.003366 0.297074
v 0.033231 0.001074 0.300574
v 0.028628 0.001074 0.297074
v 0.028628 -0.308649 0.297074
v 0.033231 -0.308649 0.300574
v 0.033231 -0.310941 0.297074
v 0.633350 0.014255 0.023500
v 0.637952 0.016547 0.023500
v 0.633350 0.016547 0.020000
v 0.011362 0.016547 0.020000
v 0.006760 0.016547 0.023500
v 0.011362 0.014255 0.023500
v 0.006760 0.016547 0.297074
v 0.011362 0.016547 0.300574
v 0.011362 0.014255 0.297074
v 0.633350 0.014255 0.297074
v 0.633350 0.016547 0.300574
v 0.637952 0.016547 0.297074
v -0.015108 0.315381 0.023500
v -0.019711 0.317672 0.023500
v -0.019711 0.315381 0.020000
v -0.019711 0.005657 0.020000
v -0.019711 0.003366 0.023500
v -0.015108 0.005657 0.023500
v -0.019711 0.003366 0.297074
v -0.019711 0.005657 0.300574
v -0.015108 0.005657 0.297074
v -0.015108 0.315381 0.297074
v -0.019711 0.315381 0.300574
v -0.019711 0.317672 0.297074
v -0.024142 -0.012022 0.321695
v -0.019540 -0.012022 0.321546
v -0.024142 -0.009730 0.321546
v -0.619830 -0.009730 0.321546
v -0.624432 -0.012022 0.321546
v -0.619830 -0.012022 0.321695
v -0.624432 -0.308649 0.321546
v -0.619830 -0.310941 0.321546
v -0.619830 -0.308649 0.321695
v -0.024142 -0.308649 0.321695
v -0.024142 -0.310941 0.321546
v -0.019540 -0.308649 0.321546
v 0.662937 -0.310941 0.023500
v 0.662937 -0.310941 0.297074
v 0.637952 0.330114 0.023500
v 0.637952 0.330114 0.297074
v -0.650732 0.318327 0.019000
v -0.649417 0.315380 0.020000
v -0.649417 0.317672 0.023500
v -0.650732 0.318327 0.301574
v -0.649417 0.317672 0.297074
v -0.649417 0.315380 0.300574
v 0.662937 0.003366 0.023500
v 0.662937 0.003366 0.297074
v -0.649417 0.005657 0.020000
v -0.650732 0.003366 0.019000
v -0.649417 0.005657 0.300574
v 0.006760 0.330114 0.023500
v 0.005445 0.330768 0.020000
v -0.019540 -0.012022 0.319574
v -0.624432 -0.012022 0.319574
v -0.624432 -0.308649 0.319574
v -0.019540 -0.308649 0.319574
v 0.662937 0.330114 0.320574
v 0.664252 0.003366 0.001000
v -0.650732 0.003366 0.001000
v -0.650732 -0.310941 0.300574
v -0.650732 -0.310941 0.020000
v 0.006760 0.330114 0.297074
v 0.005445 0.330768 0.300574
v -0.649417 0.003038 0.320574
v 0.006760 -0.324037 0.001000
v 0.006760 -0.323382 -0.000000
v -0.649417 0.003366 -0.000000
v 0.006760 0.330768 0.001000
v 0.006760 0.330114 -0.000000
v 0.662937 0.003366 -0.000000
v 0.662937 0.003366 0.320574
v 0.006760 0.330114 0.320574
v 0.006760 0.330768 0.319574
v -0.624432 0.330768 0.020000
v -0.624432 0.330768 0.300574
v 0.006760 0.003366 0.320574
v 0.637952 -0.322119 0.300574
v 0.637952 -0.322119 0.020000
v 0.006760 -0.307693 0.300791
v -0.624432 -0.322119 0.300574
v 0.006760 -0.307693 0.019783
v -0.624432 -0.322119 0.020000
v -0.016308 -0.311987 0.317941
v -0.016308 -0.007628 0.317941
v -0.623098 -0.007628 0.317941
v -0.623098 -0.311987 0.317941
v -0.623098 -0.007628 0.313404
v -0.016308 -0.007628 0.313404
v -0.016308 -0.311987 0.313404
v -0.623098 -0.311987 0.313404
v 0.641446 -0.324037 0.303231
v 0.641446 -0.324037 0.017343
v 0.006760 -0.312064 0.311671
v 0.006760 -0.312064 0.008903
v 0.006760 -0.310174 0.293528
v 0.006760 -0.310174 0.027046
v -0.627926 -0.324037 0.303231
v -0.627926 -0.324037 0.017343
v 0.634906 -0.324037 0.297528
v 0.634906 -0.324037 0.023047
v -0.621386 -0.324037 0.297528
v -0.621386 -0.324037 0.023047
v 0.006760 -0.324037 0.304561
v 0.007700 -0.322119 0.300574
v 0.007700 -0.322119 0.020000
v 0.006760 -0.324037 0.016013
v 0.005820 -0.322119 0.300574
v 0.005820 -0.322119 0.020000
v 0.007700 -0.324037 0.303620
v 0.007700 -0.324037 0.016954
v 0.007700 -0.324037 0.297528
v 0.007700 -0.324037 0.023047
v 0.005820 -0.324037 0.303620
v 0.005820 -0.324037 0.297528
v 0.005820 -0.324037 0.023047
v 0.005820 -0.324037 0.016954
f 2 131 3
f 2 3 1
f 3 60 4
f 3 4 1
f 5 6 7
f 5 7 1
f 8 109 9
f 8 9 10
f 10 40 11
f 10 11 8
f 12 13 14
f 12 14 133
f 2 15 16
f 2 16 131
f 18 109 8
f 18 8 17
f 8 131 16
f 8 16 17
f 20 111 21
f 20 21 19
f 21 141 22
f 21 22 19
f 23 24 6
f 6 5 9
f 6 9 23
f 25 26 27
f 25 27 14
f 28 29 30
f 30 146 31
f 30 31 28
f 33 126 34
f 33 34 32
f 34 149 35
f 34 35 32
f 37 128 38
f 37 38 36
f 38 53 39
f 38 39 36
f 41 143 11
f 41 11 40
f 3 42 43
f 44 45 46
f 44 46 52
f 48 140 49
f 48 49 47
f 10 50 51
f 10 51 40
f 53 137 54
f 53 54 52
f 55 56 57
f 55 57 47
f 58 59 53
f 58 53 52
f 43 21 60
f 43 60 3
f 61 62 63
f 64 65 66
f 67 68 69
f 70 71 72
f 73 74 75
f 76 77 78
f 79 80 81
f 82 83 84
f 85 86 87
f 88 89 90
f 91 92 93
f 94 95 96
f 97 98 99
f 100 101 102
f 103 104 105
f 106 107 108
f 9 109 110
f 9 110 23
f 31 111 112
f 31 112 28
f 113 121 114
f 113 114 115
f 116 115 117
f 116 117 118
f 119 17 16
f 119 16 15
f 24 120 7
f 24 7 6
f 26 121 122
f 26 122 27
f 123 25 14
f 123 14 13
f 124 19 22
f 124 22 125
f 35 127 32
f 39 126 129
f 39 129 36
f 60 130 4
f 70 61 66
f 70 66 69
f 82 73 78
f 82 78 81
f 94 85 90
f 94 90 93
f 11 143 131
f 11 131 8
f 21 111 31
f 21 31 60
f 49 140 132
f 49 132 113
f 122 121 113
f 122 113 132
f 134 132 44
f 134 44 133
f 44 52 54
f 44 54 133
f 12 133 54
f 12 54 137
f 113 115 116
f 113 116 55
f 55 47 49
f 55 49 113
f 7 120 15
f 7 15 2
f 2 1 7
f 134 27 122
f 134 122 132
f 116 118 13
f 116 13 12
f 12 55 116
f 106 97 102
f 106 102 105
f 64 63 18
f 64 18 17
f 67 65 119
f 67 119 120
f 71 68 24
f 71 24 23
f 62 72 110
f 62 110 109
f 76 75 20
f 76 20 19
f 79 77 124
f 79 124 135
f 83 80 29
f 83 29 28
f 74 84 112
f 74 112 111
f 88 87 114
f 88 114 121
f 91 89 26
f 91 26 25
f 95 92 123
f 95 123 118
f 86 96 117
f 86 117 115
f 53 59 39
f 100 99 33
f 100 33 32
f 103 101 127
f 103 127 128
f 107 104 37
f 107 37 36
f 98 108 129
f 98 129 126
f 118 123 13
f 120 119 15
f 135 124 125
f 135 125 136
f 128 127 35
f 128 35 38
f 39 59 34
f 39 34 126
f 12 137 56
f 12 56 55
f 51 50 59
f 51 59 58
f 29 135 136
f 29 136 30
f 64 66 61
f 64 61 63
f 67 69 66
f 67 66 65
f 71 70 69
f 71 69 68
f 62 61 70
f 62 70 72
f 63 62 109
f 63 109 18
f 65 64 17
f 65 17 119
f 68 67 120
f 68 120 24
f 72 71 23
f 72 23 110
f 76 78 73
f 76 73 75
f 79 81 78
f 79 78 77
f 83 82 81
f 83 81 80
f 74 73 82
f 74 82 84
f 75 74 111
f 75 111 20
f 77 76 19
f 77 19 124
f 80 79 135
f 80 135 29
f 84 83 28
f 84 28 112
f 88 90 85
f 88 85 87
f 91 93 90
f 91 90 89
f 95 94 93
f 95 93 92
f 86 85 94
f 86 94 96
f 87 86 115
f 87 115 114
f 89 88 121
f 89 121 26
f 92 91 25
f 92 25 123
f 96 95 118
f 96 118 117
f 100 102 97
f 100 97 99
f 103 105 102
f 103 102 101
f 107 106 105
f 107 105 104
f 98 97 106
f 98 106 108
f 99 98 126
f 99 126 33
f 101 100 32
f 101 32 127
f 104 103 128
f 104 128 37
f 108 107 36
f 108 36 129
f 41 40 138
f 41 138 139
f 139 138 46
f 139 46 45
f 45 44 132
f 45 132 140
f 48 47 141
f 48 141 142
f 142 141 43
f 142 43 42
f 42 3 131
f 42 131 143
f 50 10 5
f 50 5 144
f 144 5 4
f 144 4 130
f 57 56 145
f 57 145 146
f 146 145 130
f 146 130 60
f 134 133 14
f 134 14 27
f 5 1 4
f 5 10 9
f 21 43 141
f 147 125 22
f 147 22 141
f 147 141 47
f 136 125 147
f 136 147 148
f 148 147 47
f 148 47 57
f 146 136 148
f 146 148 57
f 146 30 136
f 60 31 146
f 137 53 38
f 137 38 35
f 149 56 137
f 149 137 35
f 149 145 56
f 130 145 149
f 130 149 144
f 59 149 34
f 144 149 59
f 144 59 50
f 51 164 165
f 51 165 40
f 164 51 58
f 164 58 176
f 164 176 182
f 165 183 179
f 165 179 138
f 165 138 40
f 172 184 185
f 172 185 173
f 170 186 176
f 170 176 58
f 170 58 52
f 174 175 188
f 174 188 187
f 52 46 171
f 52 171 170
f 171 46 138
f 171 138 179
f 171 179 189
f 164 150 151
f 164 151 165
f 150 164 182
f 150 182 177
f 151 178 183
f 151 183 165
f 173 151 150
f 173 150 172
f 150 177 184
f 150 184 172
f 151 173 185
f 151 185 178
f 153 180 186
f 153 186 170
f 153 174 187
f 153 187 180
f 153 155 175
f 153 175 174
f 155 181 188
f 155 188 175
f 171 155 153
f 171 153 170
f 155 171 189
f 155 189 181
f 176 166 182
f 183 167 179
f 184 168 169
f 184 169 185
f 186 166 176
f 188 169 168
f 188 168 187
f 179 167 189
f 182 166 152
f 182 152 177
f 178 154 167
f 178 167 183
f 177 152 168
f 177 168 184
f 185 169 154
f 185 154 178
f 180 152 166
f 180 166 186
f 187 168 152
f 187 152 180
f 181 154 169
f 181 169 188
f 189 167 154
f 189 154 181
f 160 163 159
f 160 159 158
f 163 162 156
f 163 156 159
f 162 161 157
f 162 157 156
f 161 160 158
f 161 158 157
