# GENERATED by scripts/dae_to_obj.py from aws_ShoeRack_01_visual.DAE.
# <unit meter="0.01"> is baked into the vertices; OBJ has no unit field.
v -0.442138 -0.149395 0.046928
v 0.442138 -0.140047 0.041352
v -0.446521 0.140047 0.046928
v 0.442138 0.140047 0.041352
v -0.442138 -0.149395 0.071211
v 0.446521 -0.140047 0.071211
v -0.446521 0.140047 0.071211
v 0.442138 0.149395 0.071211
v -0.446521 -0.140047 0.046928
v -0.442138 -0.140047 0.041352
v 0.446521 -0.140047 0.046928
v 0.442138 -0.149395 0.046928
v -0.442138 0.149395 0.046928
v -0.442138 0.140047 0.041352
v 0.442138 0.149395 0.046928
v 0.446521 0.140047 0.046928
v -0.442138 -0.140047 0.076787
v -0.446521 -0.140047 0.071211
v 0.442138 -0.140047 0.076787
v 0.442138 -0.149395 0.071211
v -0.442138 0.140047 0.076787
v -0.442138 0.149395 0.071211
v 0.442138 0.140047 0.076787
v 0.446521 0.140047 0.071211
v -0.422334 0.121414 0.074663
v -0.422334 0.135638 0.074663
v 0.422334 0.135638 0.074663
v 0.422334 0.121414 0.074663
v -0.422334 0.121414 0.096442
v 0.422334 0.121414 0.096442
v 0.422334 0.135638 0.096442
v -0.422334 0.135638 0.096442
v -0.422334 0.120940 0.078090
v 0.422334 0.120940 0.078090
v 0.422334 0.120940 0.093015
v -0.422334 0.120940 0.093015
v 0.426521 0.121414 0.078090
v 0.426521 0.135638 0.078090
v 0.426521 0.135638 0.093015
v 0.426521 0.121414 0.093015
v 0.422334 0.136113 0.078090
v -0.422334 0.136113 0.078090
v -0.422334 0.136113 0.093015
v 0.422334 0.136113 0.093015
v -0.426521 0.135638 0.078090
v -0.426521 0.121414 0.078090
v -0.426521 0.121414 0.093015
v -0.426521 0.135638 0.093015
v -0.423799 -0.117191 0.005576
v -0.423799 -0.077640 0.005576
v -0.423799 -0.077640 1.130608
v -0.423799 -0.117191 1.130608
v -0.443309 -0.117191 0.005576
v -0.443309 -0.117191 1.130608
v -0.443309 -0.077640 1.130608
v -0.443309 -0.077640 0.005576
v -0.426869 -0.118511 0.005576
v -0.426869 -0.118511 1.130608
v -0.440239 -0.118511 1.130608
v -0.440239 -0.118511 0.005576
v -0.426869 -0.117191 1.136184
v -0.426869 -0.077640 1.136184
v -0.440239 -0.077640 1.136184
v -0.440239 -0.117191 1.136184
v -0.426869 -0.076320 1.130608
v -0.426869 -0.076320 0.005576
v -0.440239 -0.076320 0.005576
v -0.440239 -0.076320 1.130608
v -0.426869 -0.077640 0.000000
v -0.426869 -0.117191 0.000000
v -0.440239 -0.117191 0.000000
v -0.440239 -0.077640 0.000000
v -0.423799 0.094448 0.005576
v -0.423799 0.133998 0.005576
v -0.423799 0.133998 1.130608
v -0.423799 0.094448 1.130608
v -0.443309 0.094448 0.005576
v -0.443309 0.094448 1.130608
v -0.443309 0.133998 1.130608
v -0.443309 0.133998 0.005576
v -0.426869 0.093128 0.005576
v -0.426869 0.093128 1.130608
v -0.440239 0.093128 1.130608
v -0.440239 0.093128 0.005576
v -0.426869 0.094448 1.136184
v -0.426869 0.133998 1.136184
v -0.440239 0.133998 1.136184
v -0.440239 0.094448 1.136184
v -0.426869 0.135318 1.130608
v -0.426869 0.135318 0.005576
v -0.440239 0.135318 0.005576
v -0.440239 0.135318 1.130608
v -0.426869 0.133998 0.000000
v -0.426869 0.094448 0.000000
v -0.440239 0.094448 0.000000
v -0.440239 0.133998 0.000000
v 0.433959 -0.117191 0.005576
v 0.433959 -0.077640 0.005576
v 0.433959 -0.077640 1.130608
v 0.433959 -0.117191 1.130608
v 0.414449 -0.117191 0.005576
v 0.414449 -0.117191 1.130608
v 0.414449 -0.077640 1.130608
v 0.414449 -0.077640 0.005576
v 0.430889 -0.118511 0.005576
v 0.430889 -0.118511 1.130608
v 0.417519 -0.118511 1.130608
v 0.417519 -0.118511 0.005576
v 0.430889 -0.117191 1.136184
v 0.430889 -0.077640 1.136184
v 0.417519 -0.077640 1.136184
v 0.417519 -0.117191 1.136184
v 0.430889 -0.076320 1.130608
v 0.430889 -0.076320 0.005576
v 0.417519 -0.076320 0.005576
v 0.417519 -0.076320 1.130608
v 0.430889 -0.077640 0.000000
v 0.430889 -0.117191 0.000000
v 0.417519 -0.117191 0.000000
v 0.417519 -0.077640 0.000000
v 0.433959 0.094448 0.005576
v 0.433959 0.133998 0.005576
v 0.433959 0.133998 1.130608
v 0.433959 0.094448 1.130608
v 0.414449 0.094448 0.005576
v 0.414449 0.094448 1.130608
v 0.414449 0.133998 1.130608
v 0.414449 0.133998 0.005576
v 0.430889 0.093128 0.005576
v 0.430889 0.093128 1.130608
v 0.417519 0.093128 1.130608
v 0.417519 0.093128 0.005576
v 0.430889 0.094448 1.136184
v 0.430889 0.133998 1.136184
v 0.417519 0.133998 1.136184
v 0.417519 0.094448 1.136184
v 0.430889 0.135318 1.130608
v 0.430889 0.135318 0.005576
v 0.417519 0.135318 0.005576
v 0.417519 0.135318 1.130608
v 0.430889 0.133998 0.000000
v 0.430889 0.094448 0.000000
v 0.417519 0.094448 0.000000
v 0.417519 0.133998 0.000000
v -0.442138 -0.140047 0.339071
v -0.442138 0.140047 0.339071
v 0.442138 0.140047 0.339070
v 0.442138 -0.140047 0.339070
v -0.442138 -0.140047 0.374506
v 0.442138 -0.140047 0.374506
v 0.442138 0.140047 0.374506
v -0.442138 0.140047 0.374506
v -0.442138 -0.149395 0.344647
v 0.442138 -0.149395 0.344647
v 0.442138 -0.149395 0.368930
v -0.442138 -0.149395 0.368930
v 0.446521 -0.140047 0.344647
v 0.446521 0.140047 0.344647
v 0.446521 0.140047 0.368930
v 0.446521 -0.140047 0.368930
v 0.442138 0.149395 0.344647
v -0.442138 0.149395 0.344647
v -0.442138 0.149395 0.368930
v 0.442138 0.149395 0.368930
v -0.446521 0.140047 0.344647
v -0.446521 -0.140047 0.344647
v -0.446521 -0.140047 0.368930
v -0.446521 0.140047 0.368930
v -0.422334 0.121414 0.394161
v 0.422334 0.121414 0.394161
v 0.422334 0.135638 0.394161
v -0.422334 0.135638 0.394161
v -0.422334 0.120940 0.375809
v 0.422334 0.120940 0.375809
v 0.422334 0.120940 0.390733
v -0.422334 0.120940 0.390733
v 0.426521 0.121414 0.375809
v 0.426521 0.135638 0.375809
v 0.426521 0.135638 0.390733
v 0.426521 0.121414 0.390733
v 0.422334 0.136113 0.375809
v -0.422334 0.136113 0.375809
v -0.422334 0.136113 0.390733
v 0.422334 0.136113 0.390733
v -0.426521 0.135638 0.375809
v -0.426521 0.121414 0.375809
v -0.426521 0.121414 0.390733
v -0.426521 0.135638 0.390733
v -0.422334 0.121414 0.372382
v 0.422334 0.121414 0.372382
v -0.422334 0.135638 0.372382
v 0.422334 0.135638 0.372382
v -0.442138 -0.140047 0.652635
v -0.442138 0.140047 0.652636
v 0.442138 0.140047 0.652635
v 0.442138 -0.140047 0.652635
v -0.442138 -0.140047 0.688071
v 0.442138 -0.140047 0.688071
v 0.442138 0.140047 0.688071
v -0.442138 0.140047 0.688071
v -0.442138 -0.149395 0.658212
v 0.442138 -0.149395 0.658212
v 0.442138 -0.149395 0.682495
v -0.442138 -0.149395 0.682495
v 0.446521 -0.140047 0.658212
v 0.446521 0.140047 0.658212
v 0.446521 0.140047 0.682495
v 0.446521 -0.140047 0.682495
v 0.442138 0.149395 0.658212
v -0.442138 0.149395 0.658212
v -0.442138 0.149395 0.682495
v 0.442138 0.149395 0.682495
v -0.446521 0.140047 0.658212
v -0.446521 -0.140047 0.658212
v -0.446521 -0.140047 0.682495
v -0.446521 0.140047 0.682495
v -0.422334 0.121414 0.707726
v 0.422334 0.121414 0.707726
v 0.422334 0.135638 0.707726
v -0.422334 0.135638 0.707726
v -0.422334 0.120940 0.689374
v 0.422334 0.120940 0.689374
v 0.422334 0.120940 0.704298
v -0.422334 0.120940 0.704299
v 0.426521 0.121414 0.689374
v 0.426521 0.135638 0.689374
v 0.426521 0.135638 0.704298
v 0.426521 0.121414 0.704298
v 0.422334 0.136113 0.689374
v -0.422334 0.136113 0.689374
v -0.422334 0.136113 0.704299
v 0.422334 0.136113 0.704298
v -0.426521 0.135638 0.689374
v -0.426521 0.121414 0.689374
v -0.426521 0.121414 0.704298
v -0.426521 0.135638 0.704298
v -0.422334 0.121414 0.685947
v 0.422334 0.121414 0.685947
v -0.422334 0.135638 0.685947
v 0.422334 0.135638 0.685947
v -0.442138 -0.140047 0.967522
v -0.442138 0.140047 0.967522
v 0.442138 0.140047 0.967522
v 0.442138 -0.140047 0.967522
v -0.442138 -0.140047 1.002957
v 0.442138 -0.140047 1.002957
v 0.442138 0.140047 1.002957
v -0.442138 0.140047 1.002957
v -0.442138 -0.149395 0.973098
v 0.442138 -0.149395 0.973098
v 0.442138 -0.149395 0.997381
v -0.442138 -0.149395 0.997381
v 0.446521 -0.140047 0.973098
v 0.446521 0.140047 0.973098
v 0.446521 0.140047 0.997381
v 0.446521 -0.140047 0.997381
v 0.442138 0.149395 0.973098
v -0.442138 0.149395 0.973098
v -0.442138 0.149395 0.997381
v 0.442138 0.149395 0.997381
v -0.446521 0.140047 0.973098
v -0.446521 -0.140047 0.973098
v -0.446521 -0.140047 0.997381
v -0.446521 0.140047 0.997381
v -0.422334 0.121414 1.022612
v 0.422334 0.121414 1.022612
v 0.422334 0.135638 1.022612
v -0.422334 0.135638 1.022612
v -0.422334 0.120940 1.004261
v 0.422334 0.120940 1.004261
v 0.422334 0.120940 1.019185
v -0.422334 0.120940 1.019185
v 0.426521 0.121414 1.004261
v 0.426521 0.135638 1.004261
v 0.426521 0.135638 1.019185
v 0.426521 0.121414 1.019185
v 0.422334 0.136113 1.004261
v -0.422334 0.136113 1.004261
v -0.422334 0.136113 1.019185
v 0.422334 0.136113 1.019185
v -0.426521 0.135638 1.004261
v -0.426521 0.121414 1.004261
v -0.426521 0.121414 1.019185
v -0.426521 0.135638 1.019185
v -0.422334 0.121414 1.000834
v 0.422334 0.121414 1.000834
v -0.422334 0.135638 1.000834
v 0.422334 0.135638 1.000834
f 10 14 4
f 10 4 2
f 17 19 23
f 17 23 21
f 1 12 20
f 1 20 5
f 11 16 24
f 11 24 6
f 15 13 22
f 15 22 8
f 3 9 18
f 3 18 7
f 1 9 10
f 2 11 12
f 3 13 14
f 4 15 16
f 5 17 18
f 6 19 20
f 7 21 22
f 8 23 24
f 10 9 3
f 10 3 14
f 14 13 15
f 14 15 4
f 4 16 11
f 4 11 2
f 2 12 1
f 2 1 10
f 17 5 20
f 17 20 19
f 19 6 24
f 19 24 23
f 23 8 22
f 23 22 21
f 21 7 18
f 21 18 17
f 12 11 6
f 12 6 20
f 5 18 9
f 5 9 1
f 16 15 8
f 16 8 24
f 13 3 7
f 13 7 22
f 29 30 31
f 29 31 32
f 33 34 35
f 33 35 36
f 37 38 39
f 37 39 40
f 41 42 43
f 41 43 44
f 45 46 47
f 45 47 48
f 33 46 25
f 28 37 34
f 45 42 26
f 27 41 38
f 36 29 47
f 40 30 35
f 48 32 43
f 44 31 39
f 25 46 45
f 25 45 26
f 26 42 41
f 26 41 27
f 27 38 37
f 27 37 28
f 28 34 33
f 28 33 25
f 29 36 35
f 29 35 30
f 30 40 39
f 30 39 31
f 31 44 43
f 31 43 32
f 32 48 47
f 32 47 29
f 34 37 40
f 34 40 35
f 36 47 46
f 36 46 33
f 38 41 44
f 38 44 39
f 42 45 48
f 42 48 43
f 49 50 51
f 49 51 52
f 53 54 55
f 53 55 56
f 57 58 59
f 57 59 60
f 61 62 63
f 61 63 64
f 65 66 67
f 65 67 68
f 69 70 71
f 69 71 72
f 57 70 49
f 52 61 58
f 69 66 50
f 51 65 62
f 60 53 71
f 64 54 59
f 72 56 67
f 68 55 63
f 49 70 69
f 49 69 50
f 50 66 65
f 50 65 51
f 51 62 61
f 51 61 52
f 52 58 57
f 52 57 49
f 53 60 59
f 53 59 54
f 54 64 63
f 54 63 55
f 55 68 67
f 55 67 56
f 56 72 71
f 56 71 53
f 58 61 64
f 58 64 59
f 60 71 70
f 60 70 57
f 62 65 68
f 62 68 63
f 66 69 72
f 66 72 67
f 73 74 75
f 73 75 76
f 77 78 79
f 77 79 80
f 81 82 83
f 81 83 84
f 85 86 87
f 85 87 88
f 89 90 91
f 89 91 92
f 93 94 95
f 93 95 96
f 81 94 73
f 76 85 82
f 93 90 74
f 75 89 86
f 84 77 95
f 88 78 83
f 96 80 91
f 92 79 87
f 73 94 93
f 73 93 74
f 74 90 89
f 74 89 75
f 75 86 85
f 75 85 76
f 76 82 81
f 76 81 73
f 77 84 83
f 77 83 78
f 78 88 87
f 78 87 79
f 79 92 91
f 79 91 80
f 80 96 95
f 80 95 77
f 82 85 88
f 82 88 83
f 84 95 94
f 84 94 81
f 86 89 92
f 86 92 87
f 90 93 96
f 90 96 91
f 97 98 99
f 97 99 100
f 101 102 103
f 101 103 104
f 105 106 107
f 105 107 108
f 109 110 111
f 109 111 112
f 113 114 115
f 113 115 116
f 117 118 119
f 117 119 120
f 105 118 97
f 100 109 106
f 117 114 98
f 99 113 110
f 108 101 119
f 112 102 107
f 120 104 115
f 116 103 111
f 97 118 117
f 97 117 98
f 98 114 113
f 98 113 99
f 99 110 109
f 99 109 100
f 100 106 105
f 100 105 97
f 101 108 107
f 101 107 102
f 102 112 111
f 102 111 103
f 103 116 115
f 103 115 104
f 104 120 119
f 104 119 101
f 106 109 112
f 106 112 107
f 108 119 118
f 108 118 105
f 110 113 116
f 110 116 111
f 114 117 120
f 114 120 115
f 121 122 123
f 121 123 124
f 125 126 127
f 125 127 128
f 129 130 131
f 129 131 132
f 133 134 135
f 133 135 136
f 137 138 139
f 137 139 140
f 141 142 143
f 141 143 144
f 129 142 121
f 124 133 130
f 141 138 122
f 123 137 134
f 132 125 143
f 136 126 131
f 144 128 139
f 140 127 135
f 121 142 141
f 121 141 122
f 122 138 137
f 122 137 123
f 123 134 133
f 123 133 124
f 124 130 129
f 124 129 121
f 125 132 131
f 125 131 126
f 126 136 135
f 126 135 127
f 127 140 139
f 127 139 128
f 128 144 143
f 128 143 125
f 130 133 136
f 130 136 131
f 132 143 142
f 132 142 129
f 134 137 140
f 134 140 135
f 138 141 144
f 138 144 139
f 145 146 147
f 145 147 148
f 149 150 151
f 149 151 152
f 153 154 155
f 153 155 156
f 157 158 159
f 157 159 160
f 161 162 163
f 161 163 164
f 165 166 167
f 165 167 168
f 153 166 145
f 148 157 154
f 165 162 146
f 147 161 158
f 156 149 167
f 160 150 155
f 168 152 163
f 164 151 159
f 145 166 165
f 145 165 146
f 146 162 161
f 146 161 147
f 147 158 157
f 147 157 148
f 148 154 153
f 148 153 145
f 149 156 155
f 149 155 150
f 150 160 159
f 150 159 151
f 151 164 163
f 151 163 152
f 152 168 167
f 152 167 149
f 154 157 160
f 154 160 155
f 156 167 166
f 156 166 153
f 158 161 164
f 158 164 159
f 162 165 168
f 162 168 163
f 169 170 171
f 169 171 172
f 173 174 175
f 173 175 176
f 177 178 179
f 177 179 180
f 181 182 183
f 181 183 184
f 185 186 187
f 185 187 188
f 173 186 189
f 190 177 174
f 185 182 191
f 192 181 178
f 176 169 187
f 180 170 175
f 188 172 183
f 184 171 179
f 189 186 185
f 189 185 191
f 191 182 181
f 191 181 192
f 192 178 177
f 192 177 190
f 190 174 173
f 190 173 189
f 169 176 175
f 169 175 170
f 170 180 179
f 170 179 171
f 171 184 183
f 171 183 172
f 172 188 187
f 172 187 169
f 174 177 180
f 174 180 175
f 176 187 186
f 176 186 173
f 178 181 184
f 178 184 179
f 182 185 188
f 182 188 183
f 193 194 195
f 193 195 196
f 197 198 199
f 197 199 200
f 201 202 203
f 201 203 204
f 205 206 207
f 205 207 208
f 209 210 211
f 209 211 212
f 213 214 215
f 213 215 216
f 201 214 193
f 196 205 202
f 213 210 194
f 195 209 206
f 204 197 215
f 208 198 203
f 216 200 211
f 212 199 207
f 193 214 213
f 193 213 194
f 194 210 209
f 194 209 195
f 195 206 205
f 195 205 196
f 196 202 201
f 196 201 193
f 197 204 203
f 197 203 198
f 198 208 207
f 198 207 199
f 199 212 211
f 199 211 200
f 200 216 215
f 200 215 197
f 202 205 208
f 202 208 203
f 204 215 214
f 204 214 201
f 206 209 212
f 206 212 207
f 210 213 216
f 210 216 211
f 217 218 219
f 217 219 220
f 221 222 223
f 221 223 224
f 225 226 227
f 225 227 228
f 229 230 231
f 229 231 232
f 233 234 235
f 233 235 236
f 221 234 237
f 238 225 222
f 233 230 239
f 240 229 226
f 224 217 235
f 228 218 223
f 236 220 231
f 232 219 227
f 237 234 233
f 237 233 239
f 239 230 229
f 239 229 240
f 240 226 225
f 240 225 238
f 238 222 221
f 238 221 237
f 217 224 223
f 217 223 218
f 218 228 227
f 218 227 219
f 219 232 231
f 219 231 220
f 220 236 235
f 220 235 217
f 222 225 228
f 222 228 223
f 224 235 234
f 224 234 221
f 226 229 232
f 226 232 227
f 230 233 236
f 230 236 231
f 241 242 243
f 241 243 244
f 245 246 247
f 245 247 248
f 249 250 251
f 249 251 252
f 253 254 255
f 253 255 256
f 257 258 259
f 257 259 260
f 261 262 263
f 261 263 264
f 249 262 241
f 244 253 250
f 261 258 242
f 243 257 254
f 252 245 263
f 256 246 251
f 264 248 259
f 260 247 255
f 241 262 261
f 241 261 242
f 242 258 257
f 242 257 243
f 243 254 253
f 243 253 244
f 244 250 249
f 244 249 241
f 245 252 251
f 245 251 246
f 246 256 255
f 246 255 247
f 247 260 259
f 247 259 248
f 248 264 263
f 248 263 245
f 250 253 256
f 250 256 251
f 252 263 262
f 252 262 249
f 254 257 260
f 254 260 255
f 258 261 264
f 258 264 259
f 265 266 267
f 265 267 268
f 269 270 271
f 269 271 272
f 273 274 275
f 273 275 276
f 277 278 279
f 277 279 280
f 281 282 283
f 281 283 284
f 269 282 285
f 286 273 270
f 281 278 287
f 288 277 274
f 272 265 283
f 276 266 271
f 284 268 279
f 280 267 275
f 285 282 281
f 285 281 287
f 287 278 277
f 287 277 288
f 288 274 273
f 288 273 286
f 286 270 269
f 286 269 285
f 265 272 271
f 265 271 266
f 266 276 275
f 266 275 267
f 267 280 279
f 267 279 268
f 268 284 283
f 268 283 265
f 270 273 276
f 270 276 271
f 272 283 282
f 272 282 269
f 274 277 280
f 274 280 275
f 278 281 284
f 278 284 279
