# GENERATED by scripts/dae_to_obj.py from aws_KitchenTable_01_visual.DAE.
# <unit meter="0.01"> is baked into the vertices; OBJ has no unit field.
v -0.344918 -0.894918 0.746500
v -0.344918 0.894918 0.746500
v 0.344918 0.894918 0.746500
v 0.344918 -0.894918 0.746500
v -0.344918 -0.894918 0.801357
v 0.344918 -0.894918 0.801357
v 0.344918 0.894918 0.801357
v -0.344918 0.894918 0.801357
v -0.344918 -0.900000 0.751581
v 0.344918 -0.900000 0.751581
v 0.344918 -0.900000 0.796275
v -0.344918 -0.900000 0.796275
v 0.350000 -0.894918 0.751581
v 0.350000 0.894918 0.751581
v 0.350000 0.894918 0.796275
v 0.350000 -0.894918 0.796275
v 0.344918 0.900000 0.751581
v -0.344918 0.900000 0.751581
v -0.344918 0.900000 0.796275
v 0.344918 0.900000 0.796275
v -0.350000 0.894918 0.751581
v -0.350000 -0.894918 0.751581
v -0.350000 -0.894918 0.796275
v -0.350000 0.894918 0.796275
v -0.347777 -0.898730 0.748723
v -0.344918 -0.898730 0.747770
v 0.347777 -0.897777 0.747770
v 0.344918 -0.898730 0.747770
v -0.348730 0.897777 0.748723
v -0.348730 0.894918 0.747770
v 0.347777 0.897777 0.747770
v 0.348729 0.894918 0.747770
v -0.347777 -0.898730 0.799134
v -0.348730 -0.898730 0.796275
v 0.348729 -0.897777 0.799135
v 0.348729 -0.898730 0.796275
v -0.348730 0.897777 0.799135
v -0.348730 0.898730 0.796275
v 0.347777 0.898730 0.799134
v 0.348729 0.898730 0.796275
v -0.348730 -0.894918 0.747770
v -0.344918 0.898730 0.747770
v 0.344918 0.898730 0.747770
v 0.348729 -0.894918 0.747770
v -0.344918 -0.898730 0.800086
v 0.344918 -0.898730 0.800088
v 0.348729 -0.894918 0.800086
v 0.348729 0.894918 0.800086
v 0.344918 0.898730 0.800086
v -0.344918 0.898730 0.800088
v -0.348730 0.894918 0.800086
v -0.348730 -0.894918 0.800086
v 0.348730 -0.898730 0.751581
v -0.348730 -0.898730 0.751581
v 0.348729 0.898730 0.751581
v -0.348730 0.898730 0.751581
v -0.252209 -0.646286 0.004848
v -0.145225 -0.646286 0.745152
v -0.079382 -0.646286 0.745152
v -0.186366 -0.646286 0.004848
v -0.252209 -0.738642 0.004848
v -0.186366 -0.738642 0.004848
v -0.079382 -0.738643 0.745152
v -0.145225 -0.738643 0.745152
v -0.252960 -0.651134 0.000000
v -0.187016 -0.651134 0.000000
v -0.187016 -0.733794 0.000000
v -0.252960 -0.733794 0.000000
v -0.181475 -0.651134 0.004798
v -0.074476 -0.651134 0.745202
v -0.074476 -0.733794 0.745202
v -0.181475 -0.733794 0.004798
v -0.078631 -0.651134 0.750000
v -0.144575 -0.651134 0.750000
v -0.144575 -0.733794 0.750000
v -0.078631 -0.733794 0.750000
v -0.150116 -0.651134 0.745202
v -0.257115 -0.651134 0.004798
v -0.257115 -0.733794 0.004798
v -0.150116 -0.733794 0.745202
v -0.255506 -0.648407 0.001209
v -0.252747 -0.647498 0.001212
v -0.183997 -0.647498 0.002112
v -0.186854 -0.647498 0.001212
v -0.148506 -0.648407 0.747888
v -0.148897 -0.647498 0.745164
v -0.076221 -0.647498 0.747888
v -0.075702 -0.647498 0.745189
v -0.255504 -0.736521 0.001203
v -0.256423 -0.733794 0.001200
v -0.183079 -0.736521 0.002109
v -0.183207 -0.733794 0.001200
v -0.148512 -0.736521 0.747891
v -0.148384 -0.733794 0.748800
v -0.076087 -0.736521 0.748797
v -0.075168 -0.733794 0.748800
v -0.255889 -0.647498 0.004836
v -0.144712 -0.647498 0.748784
v -0.078818 -0.647498 0.748788
v -0.182698 -0.647498 0.004811
v -0.252747 -0.737430 0.001212
v -0.186854 -0.737430 0.001212
v -0.182694 -0.737430 0.004836
v -0.075702 -0.737430 0.745189
v -0.078844 -0.737430 0.748788
v -0.144737 -0.737430 0.748788
v -0.148897 -0.737430 0.745164
v -0.255888 -0.737430 0.004811
v -0.183207 -0.651134 0.001200
v -0.256423 -0.651134 0.001200
v -0.075168 -0.651134 0.748800
v -0.148384 -0.651134 0.748800
v -0.166547 -0.660154 0.286796
v -0.166547 -0.660154 0.327764
v 0.157415 -0.660154 0.327764
v 0.157415 -0.660154 0.286796
v -0.166547 -0.716154 0.286796
v 0.157415 -0.716154 0.286796
v 0.157415 -0.716154 0.327764
v -0.166547 -0.716154 0.327764
v -0.166547 -0.662119 0.284831
v 0.157415 -0.662119 0.284831
v 0.157415 -0.714190 0.284831
v -0.166547 -0.714190 0.284831
v 0.159379 -0.662119 0.286796
v 0.159379 -0.662119 0.327764
v 0.159379 -0.714190 0.327764
v 0.159379 -0.714190 0.286796
v 0.157415 -0.662119 0.329729
v -0.166547 -0.662119 0.329729
v -0.166547 -0.714190 0.329729
v 0.157415 -0.714190 0.329729
v -0.168512 -0.662119 0.327764
v -0.168512 -0.662119 0.286796
v -0.168512 -0.714190 0.286796
v -0.168512 -0.714190 0.327764
v -0.167652 -0.661014 0.285322
v -0.166547 -0.660646 0.285322
v 0.158520 -0.660646 0.285691
v 0.157415 -0.660646 0.285322
v -0.168021 -0.661014 0.328870
v -0.168021 -0.660646 0.327764
v 0.158520 -0.660646 0.328870
v 0.158888 -0.660646 0.327764
v -0.167652 -0.715295 0.285322
v -0.168021 -0.714190 0.285322
v 0.158888 -0.715295 0.285691
v 0.158888 -0.714190 0.285322
v -0.168021 -0.715295 0.328870
v -0.168021 -0.714190 0.329238
v 0.158520 -0.715295 0.329238
v 0.158888 -0.714190 0.329238
v -0.168021 -0.660646 0.286796
v -0.166547 -0.660646 0.329238
v 0.157415 -0.660646 0.329238
v 0.158888 -0.660646 0.286796
v -0.166547 -0.715663 0.285322
v 0.157415 -0.715663 0.285322
v 0.158888 -0.715663 0.286796
v 0.158888 -0.715663 0.327764
v 0.157415 -0.715663 0.329238
v -0.166547 -0.715663 0.329238
v -0.168021 -0.715663 0.327764
v -0.168021 -0.715663 0.286796
v 0.158888 -0.662119 0.285322
v -0.168021 -0.662119 0.285322
v 0.158888 -0.662119 0.329238
v -0.168021 -0.662119 0.329238
v 0.252209 -0.646286 0.004848
v 0.145225 -0.646286 0.745152
v 0.079382 -0.646286 0.745152
v 0.186366 -0.646286 0.004848
v 0.252209 -0.738642 0.004848
v 0.186366 -0.738642 0.004848
v 0.079382 -0.738643 0.745152
v 0.145225 -0.738643 0.745152
v 0.252960 -0.651134 0.000000
v 0.187016 -0.651134 0.000000
v 0.187016 -0.733794 0.000000
v 0.252960 -0.733794 0.000000
v 0.181475 -0.651134 0.004798
v 0.074476 -0.651134 0.745202
v 0.074476 -0.733794 0.745202
v 0.181475 -0.733794 0.004798
v 0.078631 -0.651134 0.750000
v 0.144574 -0.651134 0.750000
v 0.144574 -0.733794 0.750000
v 0.078631 -0.733794 0.750000
v 0.150116 -0.651134 0.745202
v 0.257115 -0.651134 0.004798
v 0.257115 -0.733794 0.004798
v 0.150116 -0.733794 0.745202
v 0.255506 -0.648407 0.001209
v 0.252747 -0.647498 0.001212
v 0.183997 -0.647498 0.002112
v 0.186854 -0.647498 0.001212
v 0.148506 -0.648407 0.747888
v 0.148897 -0.647498 0.745164
v 0.076221 -0.647498 0.747888
v 0.075702 -0.647498 0.745189
v 0.255504 -0.736521 0.001203
v 0.256423 -0.733794 0.001200
v 0.183079 -0.736521 0.002109
v 0.183207 -0.733794 0.001200
v 0.148512 -0.736521 0.747891
v 0.148384 -0.733794 0.748800
v 0.076087 -0.736521 0.748797
v 0.075168 -0.733794 0.748800
v 0.255888 -0.647498 0.004836
v 0.144712 -0.647498 0.748784
v 0.078818 -0.647498 0.748788
v 0.182698 -0.647498 0.004811
v 0.252747 -0.737430 0.001212
v 0.186854 -0.737430 0.001212
v 0.182694 -0.737430 0.004836
v 0.075702 -0.737430 0.745189
v 0.078844 -0.737430 0.748788
v 0.144737 -0.737430 0.748788
v 0.148897 -0.737430 0.745164
v 0.255888 -0.737430 0.004811
v 0.183207 -0.651134 0.001200
v 0.256423 -0.651134 0.001200
v 0.075168 -0.651134 0.748800
v 0.148384 -0.651134 0.748800
v -0.252209 0.652511 0.004848
v -0.145225 0.652511 0.745152
v -0.079382 0.652511 0.745152
v -0.186366 0.652511 0.004848
v -0.252209 0.744867 0.004848
v -0.186366 0.744867 0.004848
v -0.079382 0.744868 0.745152
v -0.145225 0.744868 0.745152
v -0.252960 0.657359 0.000000
v -0.187016 0.657359 0.000000
v -0.187016 0.740019 0.000000
v -0.252960 0.740019 0.000000
v -0.181475 0.657359 0.004798
v -0.074476 0.657359 0.745202
v -0.074476 0.740019 0.745202
v -0.181475 0.740019 0.004798
v -0.078631 0.657359 0.750000
v -0.144575 0.657359 0.750000
v -0.144575 0.740019 0.750000
v -0.078631 0.740019 0.750000
v -0.150116 0.657359 0.745202
v -0.257115 0.657359 0.004798
v -0.257115 0.740019 0.004798
v -0.150116 0.740019 0.745202
v -0.255506 0.654632 0.001209
v -0.252747 0.653723 0.001212
v -0.183997 0.653723 0.002112
v -0.186854 0.653723 0.001212
v -0.148506 0.654632 0.747888
v -0.148897 0.653723 0.745164
v -0.076221 0.653723 0.747888
v -0.075702 0.653723 0.745189
v -0.255504 0.742746 0.001203
v -0.256423 0.740019 0.001200
v -0.183079 0.742746 0.002109
v -0.183207 0.740019 0.001200
v -0.148512 0.742746 0.747891
v -0.148384 0.740019 0.748800
v -0.076087 0.742746 0.748797
v -0.075168 0.740019 0.748800
v -0.255889 0.653723 0.004836
v -0.144712 0.653723 0.748784
v -0.078818 0.653723 0.748788
v -0.182698 0.653723 0.004811
v -0.252747 0.743655 0.001212
v -0.186854 0.743655 0.001212
v -0.182694 0.743655 0.004836
v -0.075702 0.743656 0.745189
v -0.078844 0.743655 0.748788
v -0.144737 0.743655 0.748788
v -0.148897 0.743655 0.745164
v -0.255888 0.743655 0.004811
v -0.183207 0.657359 0.001200
v -0.256423 0.657359 0.001200
v -0.075168 0.657359 0.748800
v -0.148384 0.657359 0.748800
v -0.166547 0.666379 0.286796
v -0.166547 0.666379 0.327764
v 0.157415 0.666379 0.327764
v 0.157415 0.666379 0.286796
v -0.166547 0.722379 0.286796
v 0.157415 0.722379 0.286796
v 0.157415 0.722379 0.327764
v -0.166547 0.722379 0.327764
v -0.166547 0.668344 0.284831
v 0.157415 0.668344 0.284831
v 0.157415 0.720415 0.284831
v -0.166547 0.720415 0.284831
v 0.159379 0.668344 0.286796
v 0.159379 0.668344 0.327764
v 0.159379 0.720415 0.327764
v 0.159379 0.720415 0.286796
v 0.157415 0.668344 0.329729
v -0.166547 0.668344 0.329729
v -0.166547 0.720415 0.329729
v 0.157415 0.720415 0.329729
v -0.168512 0.668344 0.327764
v -0.168512 0.668344 0.286796
v -0.168512 0.720415 0.286796
v -0.168512 0.720415 0.327764
v -0.167652 0.667239 0.285322
v -0.166547 0.666871 0.285322
v 0.158520 0.666871 0.285691
v 0.157415 0.666871 0.285322
v -0.168021 0.667239 0.328870
v -0.168021 0.666871 0.327764
v 0.158520 0.666871 0.328870
v 0.158888 0.666871 0.327764
v -0.167652 0.721520 0.285322
v -0.168021 0.720415 0.285322
v 0.158888 0.721520 0.285691
v 0.158888 0.720415 0.285322
v -0.168021 0.721520 0.328870
v -0.168021 0.720415 0.329238
v 0.158520 0.721520 0.329238
v 0.158888 0.720415 0.329238
v -0.168021 0.666871 0.286796
v -0.166547 0.666871 0.329238
v 0.157415 0.666871 0.329238
v 0.158888 0.666871 0.286796
v -0.166547 0.721888 0.285322
v 0.157415 0.721888 0.285322
v 0.158888 0.721888 0.286796
v 0.158888 0.721888 0.327764
v 0.157415 0.721888 0.329238
v -0.166547 0.721888 0.329238
v -0.168021 0.721888 0.327764
v -0.168021 0.721888 0.286796
v 0.158888 0.668344 0.285322
v -0.168021 0.668344 0.285322
v 0.158888 0.668344 0.329238
v -0.168021 0.668344 0.329238
v 0.252209 0.652511 0.004848
v 0.145225 0.652511 0.745152
v 0.079382 0.652511 0.745152
v 0.186366 0.652511 0.004848
v 0.252209 0.744867 0.004848
v 0.186366 0.744867 0.004848
v 0.079382 0.744868 0.745152
v 0.145225 0.744868 0.745152
v 0.252960 0.657359 0.000000
v 0.187016 0.657359 0.000000
v 0.187016 0.740019 0.000000
v 0.252960 0.740019 0.000000
v 0.181475 0.657359 0.004798
v 0.074476 0.657359 0.745202
v 0.074476 0.740019 0.745202
v 0.181475 0.740019 0.004798
v 0.078631 0.657359 0.750000
v 0.144574 0.657359 0.750000
v 0.144574 0.740019 0.750000
v 0.078631 0.740019 0.750000
v 0.150116 0.657359 0.745202
v 0.257115 0.657359 0.004798
v 0.257115 0.740019 0.004798
v 0.150116 0.740019 0.745202
v 0.255506 0.654632 0.001209
v 0.252747 0.653723 0.001212
v 0.183997 0.653723 0.002112
v 0.186854 0.653723 0.001212
v 0.148506 0.654632 0.747888
v 0.148897 0.653723 0.745164
v 0.076221 0.653723 0.747888
v 0.075702 0.653723 0.745189
v 0.255504 0.742746 0.001203
v 0.256423 0.740019 0.001200
v 0.183079 0.742746 0.002109
v 0.183207 0.740019 0.001200
v 0.148512 0.742746 0.747891
v 0.148384 0.740019 0.748800
v 0.076087 0.742746 0.748797
v 0.075168 0.740019 0.748800
v 0.255888 0.653723 0.004836
v 0.144712 0.653723 0.748784
v 0.078818 0.653723 0.748788
v 0.182698 0.653723 0.004811
v 0.252747 0.743655 0.001212
v 0.186854 0.743655 0.001212
v 0.182694 0.743655 0.004836
v 0.075702 0.743656 0.745189
v 0.078844 0.743655 0.748788
v 0.144737 0.743655 0.748788
v 0.148897 0.743655 0.745164
v 0.255888 0.743655 0.004811
v 0.183207 0.657359 0.001200
v 0.256423 0.657359 0.001200
v 0.075168 0.657359 0.748800
v 0.148384 0.657359 0.748800
f 1 3 4
f 3 1 2
f 6 7 8
f 8 5 6
f 12 10 11
f 10 12 9
f 13 14 16
f 15 16 14
f 20 18 19
f 18 20 17
f 23 24 21
f 23 21 22
f 9 25 26
f 4 27 28
f 21 29 30
f 3 31 32
f 12 33 34
f 16 35 36
f 24 37 38
f 20 39 40
f 41 30 1
f 1 30 2
f 2 43 3
f 43 2 42
f 4 3 44
f 44 3 32
f 26 4 28
f 4 26 1
f 5 46 6
f 46 5 45
f 47 48 7
f 7 6 47
f 8 49 50
f 49 8 7
f 51 52 8
f 8 52 5
f 36 10 53
f 10 36 11
f 34 54 12
f 12 54 9
f 15 55 40
f 55 15 14
f 19 56 38
f 56 19 18
f 9 54 25
f 22 25 54
f 25 22 41
f 26 25 1
f 25 41 1
f 4 44 27
f 13 27 44
f 27 13 53
f 53 10 27
f 10 28 27
f 21 56 29
f 18 29 56
f 29 18 42
f 2 29 42
f 29 2 30
f 3 43 31
f 17 55 31
f 17 31 43
f 14 31 55
f 31 14 32
f 12 45 33
f 52 33 5
f 5 33 45
f 33 23 34
f 23 33 52
f 16 47 35
f 47 6 35
f 6 46 35
f 35 46 11
f 35 11 36
f 24 51 37
f 37 8 50
f 8 37 51
f 37 19 38
f 19 37 50
f 20 49 39
f 7 39 49
f 39 7 48
f 48 15 39
f 39 15 40
f 21 41 22
f 41 21 30
f 17 42 18
f 42 17 43
f 44 32 13
f 14 13 32
f 26 28 9
f 10 9 28
f 12 11 45
f 46 45 11
f 16 15 47
f 48 47 15
f 49 19 50
f 19 49 20
f 24 23 51
f 52 51 23
f 36 13 16
f 13 36 53
f 54 34 23
f 23 22 54
f 40 55 20
f 20 55 17
f 38 56 24
f 24 56 21
f 58 60 57
f 60 58 59
f 64 62 63
f 62 64 61
f 67 68 66
f 68 65 66
f 70 72 69
f 72 70 71
f 75 73 74
f 73 75 76
f 79 80 77
f 77 78 79
f 65 81 82
f 60 83 84
f 77 85 86
f 59 87 88
f 68 89 90
f 72 91 92
f 80 93 94
f 76 95 96
f 97 86 57
f 58 57 86
f 98 59 58
f 59 98 99
f 60 59 100
f 88 100 59
f 84 57 60
f 57 84 82
f 61 102 62
f 102 61 101
f 63 103 104
f 103 63 62
f 106 63 105
f 63 106 64
f 107 61 64
f 61 107 108
f 67 109 92
f 109 67 66
f 90 110 68
f 68 110 65
f 96 70 111
f 70 96 71
f 94 74 112
f 74 94 75
f 65 110 81
f 78 81 110
f 81 78 97
f 97 82 81
f 82 97 57
f 60 100 83
f 69 83 100
f 83 69 109
f 66 83 109
f 83 66 84
f 77 112 85
f 85 74 98
f 74 85 112
f 85 58 86
f 58 85 98
f 59 99 87
f 73 87 99
f 87 73 111
f 111 70 87
f 87 70 88
f 68 101 89
f 108 101 61
f 101 108 89
f 79 89 108
f 89 79 90
f 72 103 91
f 62 91 103
f 91 62 102
f 91 67 92
f 67 91 102
f 80 107 93
f 93 64 106
f 64 93 107
f 75 93 106
f 93 75 94
f 76 105 95
f 95 105 104
f 105 63 104
f 96 95 71
f 95 104 71
f 97 77 86
f 77 97 78
f 99 74 73
f 74 99 98
f 88 69 100
f 69 88 70
f 66 82 84
f 82 66 65
f 101 67 102
f 67 101 68
f 71 103 72
f 103 71 104
f 75 105 76
f 105 75 106
f 107 79 108
f 79 107 80
f 92 109 72
f 69 72 109
f 110 90 78
f 79 78 90
f 73 76 111
f 111 76 96
f 112 80 94
f 80 112 77
f 116 113 115
f 114 115 113
f 117 118 120
f 119 120 118
f 123 124 121
f 123 121 122
f 127 125 126
f 125 127 128
f 129 130 131
f 129 131 132
f 133 134 136
f 136 134 135
f 121 137 138
f 116 139 140
f 133 141 142
f 115 143 144
f 124 145 146
f 128 147 148
f 136 149 150
f 132 151 152
f 113 142 114
f 142 113 153
f 115 154 155
f 154 115 114
f 144 156 115
f 115 156 116
f 113 116 140
f 113 140 138
f 118 117 157
f 118 157 158
f 119 118 160
f 160 118 159
f 120 119 162
f 161 162 119
f 163 164 120
f 120 164 117
f 123 122 148
f 148 122 165
f 146 121 124
f 121 146 166
f 167 152 127
f 167 127 126
f 168 131 130
f 131 168 150
f 121 166 137
f 134 137 166
f 137 134 153
f 113 137 153
f 137 113 138
f 116 156 139
f 125 139 156
f 139 125 165
f 122 139 165
f 139 122 140
f 133 168 141
f 141 130 154
f 130 141 168
f 141 114 142
f 114 141 154
f 115 155 143
f 129 143 155
f 143 129 167
f 167 126 143
f 143 126 144
f 124 157 145
f 164 145 117
f 117 145 157
f 135 145 164
f 145 135 146
f 128 159 147
f 118 147 159
f 147 118 158
f 147 158 123
f 147 123 148
f 136 163 149
f 149 120 162
f 120 149 163
f 131 149 162
f 149 131 150
f 132 161 151
f 161 119 151
f 151 119 160
f 152 151 127
f 151 160 127
f 142 153 133
f 133 153 134
f 130 129 154
f 155 154 129
f 156 144 126
f 126 125 156
f 121 140 122
f 140 121 138
f 124 158 157
f 158 124 123
f 160 128 127
f 128 160 159
f 162 161 131
f 132 131 161
f 136 164 163
f 164 136 135
f 128 165 125
f 165 128 148
f 166 146 134
f 135 134 146
f 129 132 167
f 167 132 152
f 133 136 168
f 150 168 136
f 170 172 171
f 172 170 169
f 173 176 174
f 175 174 176
f 179 178 180
f 180 178 177
f 182 184 183
f 184 182 181
f 186 185 187
f 185 188 187
f 192 191 189
f 189 191 190
f 177 194 193
f 172 196 195
f 189 198 197
f 171 200 199
f 180 202 201
f 184 204 203
f 192 206 205
f 188 208 207
f 198 169 170
f 169 198 209
f 210 171 211
f 171 210 170
f 171 212 200
f 212 171 172
f 169 196 172
f 196 169 194
f 173 214 213
f 214 173 174
f 215 175 216
f 175 215 174
f 175 218 217
f 218 175 176
f 173 219 176
f 219 173 220
f 179 221 178
f 221 179 204
f 222 202 180
f 180 177 222
f 208 223 182
f 208 182 183
f 206 224 186
f 186 187 206
f 177 193 222
f 190 193 209
f 193 190 222
f 209 194 169
f 194 209 193
f 172 195 212
f 181 212 195
f 181 195 221
f 178 221 195
f 178 195 196
f 189 197 224
f 197 186 224
f 186 197 210
f 197 170 210
f 170 197 198
f 171 199 211
f 199 185 211
f 185 199 223
f 223 199 182
f 199 200 182
f 180 201 213
f 220 173 213
f 220 213 201
f 191 201 202
f 201 191 220
f 184 203 215
f 174 215 203
f 174 203 214
f 203 179 214
f 179 203 204
f 192 205 219
f 205 176 219
f 176 205 218
f 187 205 206
f 205 187 218
f 188 207 217
f 207 216 217
f 217 216 175
f 208 183 207
f 207 183 216
f 209 198 189
f 189 190 209
f 211 186 210
f 186 211 185
f 200 181 182
f 181 200 212
f 178 194 177
f 194 178 196
f 213 179 180
f 179 213 214
f 183 215 216
f 215 183 184
f 187 188 217
f 187 217 218
f 219 191 192
f 191 219 220
f 184 181 221
f 184 221 204
f 190 191 202
f 190 202 222
f 223 188 185
f 188 223 208
f 224 206 192
f 224 192 189
f 226 228 227
f 228 226 225
f 229 232 230
f 231 230 232
f 234 233 236
f 234 236 235
f 238 240 239
f 240 238 237
f 243 241 244
f 241 243 242
f 248 247 245
f 245 247 246
f 233 250 249
f 228 252 251
f 245 254 253
f 227 256 255
f 236 258 257
f 240 260 259
f 248 262 261
f 244 264 263
f 254 225 226
f 225 254 265
f 266 227 267
f 227 266 226
f 227 268 256
f 268 227 228
f 225 252 228
f 252 225 250
f 229 270 269
f 270 229 230
f 271 231 272
f 231 271 230
f 231 274 273
f 274 231 232
f 229 275 232
f 275 229 276
f 277 235 260
f 235 277 234
f 278 236 233
f 236 278 258
f 264 279 238
f 264 238 239
f 262 242 243
f 242 262 280
f 233 249 278
f 246 249 265
f 249 246 278
f 265 250 225
f 250 265 249
f 228 251 268
f 237 268 251
f 237 251 277
f 252 234 251
f 251 234 277
f 245 253 280
f 242 253 266
f 253 242 280
f 253 226 266
f 226 253 254
f 227 255 267
f 241 255 279
f 255 241 267
f 279 255 238
f 255 256 238
f 236 257 269
f 276 229 269
f 276 269 257
f 247 257 258
f 257 247 276
f 240 259 271
f 230 271 259
f 230 259 270
f 235 259 260
f 259 235 270
f 248 261 275
f 261 232 275
f 232 261 274
f 261 243 274
f 243 261 262
f 244 263 273
f 263 272 273
f 273 272 231
f 264 239 263
f 263 239 272
f 265 254 245
f 245 246 265
f 242 267 241
f 267 242 266
f 256 237 238
f 237 256 268
f 250 234 252
f 234 250 233
f 269 235 236
f 235 269 270
f 239 271 272
f 271 239 240
f 273 274 243
f 273 243 244
f 275 247 248
f 247 275 276
f 240 237 277
f 240 277 260
f 246 247 258
f 246 258 278
f 279 264 244
f 244 241 279
f 280 262 248
f 280 248 245
f 283 282 281
f 283 281 284
f 288 287 286
f 288 286 285
f 289 291 290
f 291 289 292
f 295 294 293
f 295 293 296
f 298 297 299
f 300 299 297
f 301 304 302
f 304 303 302
f 289 306 305
f 284 308 307
f 301 310 309
f 283 312 311
f 292 314 313
f 296 316 315
f 304 318 317
f 300 320 319
f 281 282 310
f 310 321 281
f 282 283 322
f 323 322 283
f 283 324 312
f 324 283 284
f 306 308 281
f 284 281 308
f 286 325 285
f 325 286 326
f 328 286 287
f 286 328 327
f 287 330 329
f 330 287 288
f 288 332 331
f 332 288 285
f 290 316 333
f 316 290 291
f 314 289 334
f 289 314 292
f 294 295 335
f 320 335 295
f 336 299 318
f 299 336 298
f 289 305 334
f 302 305 321
f 305 302 334
f 281 305 306
f 305 281 321
f 284 307 324
f 293 307 333
f 307 293 324
f 308 290 307
f 307 290 333
f 301 309 336
f 298 309 322
f 309 298 336
f 309 282 322
f 282 309 310
f 283 311 323
f 297 311 335
f 311 297 323
f 335 311 294
f 311 312 294
f 292 313 325
f 332 285 313
f 285 325 313
f 303 332 313
f 303 313 314
f 296 315 327
f 286 315 326
f 315 286 327
f 316 291 315
f 291 326 315
f 304 317 331
f 317 288 331
f 288 317 330
f 317 299 330
f 299 317 318
f 300 319 329
f 329 319 287
f 319 328 287
f 320 295 319
f 319 295 328
f 301 321 310
f 321 301 302
f 297 298 322
f 297 322 323
f 324 294 312
f 294 324 293
f 289 308 306
f 308 289 290
f 292 326 291
f 326 292 325
f 295 296 328
f 328 296 327
f 329 330 299
f 329 299 300
f 304 332 303
f 332 304 331
f 296 293 333
f 296 333 316
f 302 303 314
f 302 314 334
f 300 335 320
f 335 300 297
f 336 318 304
f 336 304 301
f 338 340 337
f 340 338 339
f 344 342 343
f 342 344 341
f 346 348 345
f 348 346 347
f 350 352 349
f 352 350 351
f 355 356 353
f 355 353 354
f 359 360 357
f 357 358 359
f 345 361 362
f 340 363 364
f 357 365 366
f 339 367 368
f 348 369 370
f 352 371 372
f 360 373 374
f 356 375 376
f 377 366 337
f 338 337 366
f 378 339 338
f 339 378 379
f 340 339 380
f 368 380 339
f 364 337 340
f 337 364 362
f 341 382 342
f 382 341 381
f 343 383 384
f 383 343 342
f 386 343 385
f 343 386 344
f 387 341 344
f 341 387 388
f 389 347 346
f 347 389 372
f 345 348 390
f 390 348 370
f 376 350 391
f 350 376 351
f 355 354 374
f 374 354 392
f 345 390 361
f 358 361 390
f 361 358 377
f 377 362 361
f 362 377 337
f 340 380 363
f 349 363 380
f 363 349 389
f 364 363 346
f 363 389 346
f 357 392 365
f 354 365 392
f 365 354 378
f 365 338 366
f 338 365 378
f 339 379 367
f 353 367 379
f 367 353 391
f 391 350 367
f 367 350 368
f 348 381 369
f 388 381 341
f 381 388 369
f 359 369 388
f 369 359 370
f 352 383 371
f 342 371 383
f 371 342 382
f 347 371 382
f 371 347 372
f 360 387 373
f 373 344 386
f 344 373 387
f 373 355 374
f 355 373 386
f 356 385 375
f 375 385 384
f 385 343 384
f 376 375 351
f 375 384 351
f 377 357 366
f 357 377 358
f 379 354 353
f 354 379 378
f 368 349 380
f 349 368 350
f 346 362 364
f 362 346 345
f 347 381 348
f 381 347 382
f 351 383 352
f 383 351 384
f 356 355 385
f 386 385 355
f 387 359 388
f 359 387 360
f 372 389 352
f 349 352 389
f 390 370 358
f 359 358 370
f 376 391 356
f 356 391 353
f 392 360 374
f 360 392 357
